<svg id="Layer_1" data-name="Layer 1" xmlns="http://www.w3.org/2000/svg" viewBox="0 0 183.75 183.75"><defs><style>.cls-1{fill:#464548;}.cls-2{fill:#3d6fb6;}.cls-3{fill:#51ad47;}</style></defs><title>Vector Smart Object</title><path class="cls-1" d="M78.34,50.56L73.68,42.5l-3.9-6.75a91.81,91.81,0,0,0-46.2,79.07H40.69A74.7,74.7,0,0,1,78.34,50.56" transform="translate(-23.56 -23.58)"/><path class="cls-2" d="M78.34,50.56a74.68,74.68,0,0,1,74.2,0l8.55-14.83a91.79,91.79,0,0,0-91.31,0l3.9,6.76Z" transform="translate(-23.56 -23.58)"/><path class="cls-2" d="M115.43,190.21a74.38,74.38,0,0,1-37.57-10.14l-4.13,7.17-4.41,7.66a91.79,91.79,0,0,0,92.36-.08L153.11,180a74.39,74.39,0,0,1-37.68,10.2" transform="translate(-23.56 -23.58)"/><path class="cls-3" d="M77.86,180.07a74.71,74.71,0,0,1-37.18-64.61c0-.19,0-0.37,0-0.56l-17.12,0c0,0.18,0,.36,0,0.54A91.81,91.81,0,0,0,69.31,194.9l4.41-7.66Z" transform="translate(-23.56 -23.58)"/><path class="cls-3" d="M190.17,114.81h17.12a91.81,91.81,0,0,0-46.16-79l-8.56,14.82a74.7,74.7,0,0,1,37.6,64.21" transform="translate(-23.56 -23.58)"/><path class="cls-1" d="M190.18,115.46a74.7,74.7,0,0,1-37,64.54l8.58,14.81a91.81,91.81,0,0,0,45.58-79.35c0-.2,0-0.4,0-0.6l-17.12,0c0,0.19,0,.38,0,0.58" transform="translate(-23.56 -23.58)"/></svg>