<svg id="Layer_1" data-name="Layer 1" xmlns="http://www.w3.org/2000/svg" viewBox="0 0 69.24 69.56"><defs><style>.cls-1,.cls-2{fill:none;stroke:#ffffff;stroke-miterlimit:10;}.cls-2{stroke-width:2px;}.cls-3{font-size:12px;}.cls-3,.cls-5{fill:#ffffff;font-family:Gotham;}.cls-4{letter-spacing:-1px;}.cls-5{font-size:7px;font-weight:700;}</style></defs><title>top-15-corr-lend</title><path class="cls-1" d="M169.23,36.55a2.37,2.37,0,0,1,0-3.68q1.75-1.85-.35-3.28a2.37,2.37,0,0,1-.77-3.6q1.33-2.17-1-3.13a2.37,2.37,0,0,1-1.51-3.36q0.85-2.4-1.66-2.85a2.37,2.37,0,0,1-2.17-3q0.33-2.52-2.21-2.45a2.37,2.37,0,0,1-2.74-2.46q-0.2-2.54-2.67-1.93A2.38,2.38,0,0,1,150.91,5q-0.72-2.44-3-1.33a2.38,2.38,0,0,1-3.51-1.13q-1.22-2.23-3.23-.68a2.38,2.38,0,0,1-3.67-.38q-1.65-1.93-3.3,0a2.37,2.37,0,0,1-3.66.39q-2-1.55-3.23.69a2.38,2.38,0,0,1-3.5,1.15q-2.3-1.09-3,1.35A2.38,2.38,0,0,1,117.6,6.9q-2.47-.59-2.66,1.94a2.38,2.38,0,0,1-2.73,2.47q-2.54-.06-2.2,2.46a2.37,2.37,0,0,1-2.16,3q-2.5.47-1.64,2.86A2.37,2.37,0,0,1,104.7,23q-2.35,1-1,3.14a2.37,2.37,0,0,1-.76,3.6q-2.1,1.44-.34,3.28a2.37,2.37,0,0,1,0,3.68q-1.75,1.85.35,3.28a2.37,2.37,0,0,1,.77,3.6q-1.33,2.17,1,3.13a2.37,2.37,0,0,1,1.51,3.36q-0.85,2.4,1.66,2.85a2.37,2.37,0,0,1,2.17,3q-0.33,2.52,2.21,2.45A2.37,2.37,0,0,1,115,60.8q0.2,2.54,2.67,1.93a2.38,2.38,0,0,1,3.2,1.83q0.72,2.44,3,1.34A2.38,2.38,0,0,1,127.44,67q1.22,2.23,3.23.68a2.38,2.38,0,0,1,3.67.38q1.65,1.93,3.3,0a2.38,2.38,0,0,1,3.67-.39q2,1.55,3.23-.69a2.38,2.38,0,0,1,3.5-1.15q2.3,1.09,3-1.35a2.38,2.38,0,0,1,3.19-1.85q2.47,0.59,2.67-1.94a2.37,2.37,0,0,1,2.73-2.47q2.54,0.06,2.2-2.45a2.38,2.38,0,0,1,2.16-3q2.5-.46,1.64-2.86a2.37,2.37,0,0,1,1.49-3.37q2.35-1,1-3.14a2.37,2.37,0,0,1,.76-3.61Q171,38.39,169.23,36.55Z" transform="translate(-101.29 0)"/><ellipse class="cls-2" cx="34.47" cy="34.72" rx="28.42" ry="28.73"/><text class="cls-3" transform="translate(15.1 30.66)"><tspan class="cls-4">T</tspan><tspan x="6.82" y="0">op 15</tspan></text><text class="cls-5" transform="translate(8.65 42.26)">C<tspan x="4.96" y="0">or</tspan><tspan x="12.27" y="0">r</tspan><tspan x="14.95" y="0">esponden</tspan><tspan x="48.8" y="0">t</tspan></text><text class="cls-5" transform="translate(22.39 50.66)">L<tspan x="4.13" y="0">ende</tspan><tspan x="21.27" y="0">r</tspan></text></svg>