<svg id="Layer_1" data-name="Layer 1" xmlns="http://www.w3.org/2000/svg" viewBox="0 0 61.16 63.95"><defs><style>.cls-1{font-size:12px;}.cls-1,.cls-3{fill:#ffffff;font-family:Gotham;}.cls-2{letter-spacing:-1px;}.cls-3{font-size:7px;font-weight:700;}.cls-10,.cls-11,.cls-12,.cls-13,.cls-4,.cls-5,.cls-6,.cls-7,.cls-8,.cls-9{fill:none;stroke:#ffffff;}.cls-10,.cls-11,.cls-12,.cls-4,.cls-5,.cls-6,.cls-7,.cls-8,.cls-9{stroke-linecap:round;stroke-linejoin:round;}.cls-4{stroke-dasharray:0 2.01;}.cls-5{stroke-dasharray:0 2.96;}.cls-6{stroke-dasharray:0 1.91;}.cls-7{stroke-dasharray:0 2.12;}.cls-8{stroke-dasharray:0 2.04;}.cls-9{stroke-dasharray:0 0.21;}.cls-10{stroke-dasharray:0 0.85;}.cls-11{stroke-dasharray:0 1.99;}.cls-13{stroke-miterlimit:10;stroke-width:2px;}</style></defs><title>top-25-broker</title><text class="cls-1" transform="translate(9.71 24.05)"><tspan class="cls-2">T</tspan><tspan x="6.82" y="0">op 25</tspan></text><text class="cls-3" transform="translate(18.43 35.65)">B<tspan x="5.05" y="0">r</tspan><tspan x="7.88" y="0">o</tspan><tspan x="12.53" y="0">k</tspan><tspan x="16.5" y="0">er</tspan></text><text class="cls-3" transform="translate(15.89 44.05)">Channel</text><line class="cls-4" x1="56.7" y1="0.5" x2="3.46" y2="0.5"/><path class="cls-5" d="M308.89,9.07a1.76,1.76,0,0,1,.6-1.31" transform="translate(-308.39 -6.75)"/><line class="cls-6" x1="0.5" y1="4.22" x2="0.5" y2="12.8"/><line class="cls-7" x1="0.5" y1="15.88" x2="0.5" y2="19.06"/><line class="cls-8" x1="0.5" y1="22.15" x2="0.5" y2="33.34"/><path class="cls-9" d="M308.92,41.32l0-.11" transform="translate(-308.39 -6.75)"/><path class="cls-10" d="M308.89,42.17c0-.14,0-0.28,0-0.42" transform="translate(-308.39 -6.75)"/><path class="cls-11" d="M309,44.15c1.07,14.25,13.57,25.56,29,26" transform="translate(-308.39 -6.75)"/><path class="cls-11" d="M341,70.14c15.34-.93,27.54-12.57,28.07-27" transform="translate(-308.39 -6.75)"/><path class="cls-10" d="M369,41.32v0.42" transform="translate(-308.39 -6.75)"/><path class="cls-9" d="M369,41.11a0.76,0.76,0,0,1,0,.11" transform="translate(-308.39 -6.75)"/><line class="cls-8" x1="60.66" y1="32.33" x2="60.66" y2="21.14"/><line class="cls-7" x1="60.66" y1="18" x2="60.66" y2="14.82"/><line class="cls-6" x1="60.66" y1="11.85" x2="60.66" y2="3.27"/><path class="cls-5" d="M367.1,7.25a2,2,0,0,1,1.35.51" transform="translate(-308.39 -6.75)"/><path class="cls-12" d="M367.1,7.25h0m2,1.82h0m0,11.44h0m0,6.36h0m0,14.24h0m0,0.21h0m0,0.85h0M339,70.2h0m-30.08-28h0m0-.85h0m0-.21h0m0-14.24h0m0-6.36h0m0-11.44h0m2-1.82h0" transform="translate(-308.39 -6.75)"/><path class="cls-13" d="M362.6,12.28H315.34a1.59,1.59,0,0,0-1.64,1.53V40.73a1.33,1.33,0,0,0,0,.18c0,0.24,0,.47,0,0.71,0,13,11.31,23.54,25.27,23.54s25.26-10.54,25.26-23.54c0-.24,0-0.47,0-0.71a1.51,1.51,0,0,0,0-.18V13.81A1.59,1.59,0,0,0,362.6,12.28Z" transform="translate(-308.39 -6.75)"/></svg>