<svg id="Layer_1" data-name="Layer 1" xmlns="http://www.w3.org/2000/svg" viewBox="0 0 88.5 79.87"><defs><style>.cls-1{font-size:12px;}.cls-1,.cls-3{fill:#ffffff;font-family:Gotham;}.cls-2{letter-spacing:-1px;}.cls-3{font-size:7px;font-weight:700;}.cls-4,.cls-5,.cls-6{fill:none;}.cls-4,.cls-5{stroke:#ffffff;stroke-miterlimit:10;}.cls-5{stroke-width:0.19px;}</style></defs><title>top-5-fha</title><text class="cls-1" transform="translate(25.1 29.51)"><tspan class="cls-2">T</tspan><tspan x="6.82" y="0">op 5 </tspan></text><text class="cls-3" transform="translate(34.22 40.51)">FHA </text><text class="cls-3" transform="translate(51.76 40.51)"> </text><text class="cls-3" transform="translate(22.84 48.91)">Sponso<tspan x="26.38" y="0">r</tspan><tspan x="29.2" y="0">ed</tspan></text><text class="cls-3" transform="translate(23.61 57.31)">Origin<tspan x="22.19" y="0">a</tspan><tspan x="26.3" y="0">t</tspan><tspan x="29.11" y="0">or</tspan></text><path class="cls-4" d="M262.28,15.54h3.59V61.8h-3.59v4.07a41.54,41.54,0,0,0-11.67,3.25,28.18,28.18,0,0,1-26.33,0,41.53,41.53,0,0,0-11.67-3.25V61.8H209V15.54h3.59V11.47a41.53,41.53,0,0,0,11.67-3.26,28.18,28.18,0,0,1,26.33,0,41.54,41.54,0,0,0,11.67,3.26v4.06Z" transform="translate(-195.5)"/><path class="cls-5" d="M259.85,17.68l-0.87.87m0.87-1.37L259,18m0.87-1.37-0.87.87m0.87-1.37L259,17m0.87-1.37-0.87.87m0.87-1.37L259,16m0.09-1.44-0.09.94m-0.4-1,0.72,1m-1.21-1.07,0.72,1m-1.21-1.08,0.71,1m-1.2-1.09,0.7,1m-1.18-1.1,0.69,1m-1.17-1.11,0.68,1M255.65,14l0.67,1m-1.15-1.14,0.66,1m-1.14-1.15,0.64,1m-1.12-1.16,0.63,1.05m-1.12-1.18,0.62,1.06m-1.1-1.19,0.61,1.07m-1.08-1.21,0.58,1.08m-1.05-1.22,0.57,1.08m-1-1.24L252.39,14m-1-1.26,0.53,1.1m-1-1.27,0.52,1.11m-1-1.3,0.5,1.12m-1-1.31,0.47,1.13M249.55,12L250,13.14m-0.9-1.35,0.43,1.16m-0.89-1.37,0.42,1.15m-0.89-1.36,0.44,1.15m-0.91-1.35,0.46,1.14M247.24,11l0.47,1.13m-0.95-1.31,0.49,1.13m-1-1.3,0.51,1.12m-1-1.28,0.53,1.11m-1-1.27,0.55,1.1m-1-1.25,0.56,1.09m-1-1.23,0.58,1.08m-1.08-1.21,0.61,1.07m-1.09-1.19L244,10.81m-1.11-1.17,0.64,1m-1.14-1.16,0.66,1m-1.16-1.14,0.67,1m-1.17-1.11,0.69,1m-1.2-1.09,0.72,1m-1.22-1.07,0.73,1m-1.24-1,0.75,1m-1.26-1,0.78,1m-1.28-1L239.63,10m-1.3-1,0.81,0.92M237.82,9l0.84,0.9M237.31,9l0.85,0.88M236.81,9l0.87,0.86M236.29,9l0.89,0.84m-1.4-.81,0.92,0.82m-1.43-.78,0.93,0.8m-1.43-.74,0.95,0.78m-1.45-.71,1,0.76m-1.48-.68,1,0.74m-1.47-.65,1,0.72m-1.49-.62,1,0.7m-1.51-.59,1,0.68m-1.51-.57,1,0.66m-1.53-.54,1,0.64m-1.54-.51,1.06,0.62m-1.54-.49,1.06,0.61m-1.55-.46,1.08,0.59m-1.56-.44L230.4,11m-1.56-.41,1.1,0.55m-1.58-.38,1.11,0.53m-1.58-.36L229,11.41m-1.58-.33,1.12,0.5m-1.6-.3,1.14,0.47m-1.6-.27,1.13,0.46m-1.6-.25,1.15,0.44m-1.6-.23,1.14,0.43m-1.6-.22,1.15,0.42m-1.6-.23,1.15,0.44m-1.6-.26L225.33,13m-1.59-.29,1.13,0.49m-1.6-.32,1.12,0.51M222.81,13l1.1,0.53m-1.57-.38,1.09,0.56m-1.56-.41L223,13.85m-1.57-.43L222.47,14m-1.56-.46,1.07,0.6m-1.54-.48,1.06,0.62M220,13.8L221,14.42m-1.54-.52,1,0.64M219,14l1,0.66m-1.52-.55,1,0.67M218,14.22l1,0.67m-1.51-.58,1,0.69m-1.5-.6,1,0.7m-1.5-.61,1,0.71m-1.5-.62,1,0.71m-1.49-.64,1,0.72m-1.52.07h1m-1,.49,0.53-.41m-0.53.92,0.87-.87M215,16.93l0.87-.87M215,17.43l0.87-.87M215,17.93l0.87-.87M215,18.43l0.87-.87m-0.75.61,0.75-.11m-1.25.11,1.25,0.39m-1.76-.39L215,19m-1.37-.87L214.51,19m-1.37-.87L214,19m-1.37-.87L213.51,19m-1.65-.28L213,19m-1.15.22,0.65-.22m-0.65.72,0.87-.87m-0.87,1.37,0.87-.87m-0.87,1.37,0.87-.87m-0.87,1.37,0.87-.87m-0.87,1.37,0.87-.87m-0.87,1.37,0.87-.87m-0.87,1.37,0.87-.87m-0.87,1.37,0.87-.87m-0.87,1.37,0.87-.87m-0.87,1.37,0.87-.87m-0.87,1.37,0.87-.87m-0.87,1.37,0.87-.87m-0.87,1.37,0.87-.87m-0.87,1.37,0.87-.87m-0.87,1.37,0.87-.87m-0.87,1.37,0.87-.87m-0.87,1.37,0.87-.87m-0.87,1.37,0.87-.87m-0.87,1.37,0.87-.87m-0.87,1.37,0.87-.87m-0.87,1.37,0.87-.87m-0.87,1.37,0.87-.87m-0.87,1.37,0.87-.87m-0.87,1.37,0.87-.87m-0.87,1.37,0.87-.87m-0.87,1.37,0.87-.87m-0.87,1.37,0.87-.87m-0.87,1.37,0.87-.87m-0.87,1.37,0.87-.87m-0.87,1.37,0.87-.87m-0.87,1.37,0.87-.87m-0.87,1.37,0.87-.87m-0.87,1.37,0.87-.87m-0.87,1.37,0.87-.87m-0.87,1.37,0.87-.87m-0.87,1.37,0.87-.87m-0.87,1.37,0.87-.87m-0.87,1.37,0.87-.87m-0.87,1.37,0.87-.87m-0.87,1.37,0.87-.87m-0.87,1.37,0.87-.87m-0.87,1.37,0.87-.87m-0.87,1.37,0.87-.87m-0.87,1.37,0.87-.87m-0.87,1.37,0.87-.87m-0.87,1.37,0.87-.87m-0.87,1.37,0.87-.87m-0.87,1.37,0.87-.87m-0.87,1.37,0.87-.87m-0.87,1.37,0.87-.87m-0.87,1.37,0.87-.87m-0.87,1.37,0.87-.87m-0.87,1.37,0.87-.87m-0.87,1.37,0.87-.87m-0.87,1.37,0.87-.87m-0.87,1.37,0.87-.87m-0.87,1.37,0.87-.87m-0.87,1.37,0.87-.87m-0.87,1.37,0.87-.87m-0.87,1.37,0.87-.87m-0.87,1.37,0.87-.87m-0.87,1.37,0.87-.87m-0.87,1.37,0.87-.87m-0.87,1.37,0.87-.87m-0.87,1.37,0.87-.87m-0.87,1.37,0.87-.87m-0.87,1.37,0.87-.87m-0.87,1.37,0.87-.87m-0.87,1.37,0.87-.87m-0.87,1.37,0.87-.87m-0.87,1.37,0.87-.87m-0.87,1.37,0.87-.87m-0.87,1.37,0.87-.87m-0.87,1.37,0.87-.87m-0.87,1.37,0.87-.87m-0.87,1.37,0.87-.87m-0.87,1.37,0.87-.87m-0.87,1.37,0.87-.87m-0.33,1.7,0.33-1.2m0.17,1.2-0.17-.7m0.67,0.7-0.87-.87m1.37,0.87L213,58.29m1.37,0.87-0.87-.87m1.37,0.87L214,58.29m1.37,0.87-0.87-.87m0.5,0.87V58.29m0,1.37,0.87-.87M215,60.16l0.87-.87M215,60.66l0.87-.87M215,61.16l0.87-.87M215,61.66l0.87-.87M215,62.16l0.87-.87m-0.09,1.44,0.09-.94m0.4,1-0.72-1m1.21,1.07-0.72-1M217.29,63l-0.71-1m1.2,1.09-0.7-1m1.18,1.1-0.69-1m1.17,1.11-0.68-1m1.17,1.13-0.67-1m1.15,1.14-0.66-1m1.14,1.15-0.64-1m1.12,1.16L220,62.67m1.12,1.18-0.62-1.06m1.1,1.19L221,62.92m1.08,1.21-0.58-1.07m1.05,1.22L222,63.19m1,1.24-0.56-1.09m1,1.26L223,63.49m1,1.27-0.52-1.11m1,1.3-0.5-1.12m1,1.31L224.41,64m0.92,1.33-0.44-1.14m0.9,1.35-0.43-1.16m0.89,1.37-0.42-1.15M226.71,66l-0.44-1.15m0.91,1.35L226.71,65m0.93,1.33-0.47-1.13m0.95,1.31-0.5-1.12m1,1.3-0.51-1.12m1,1.28-0.53-1.11m1,1.27L229,65.93m1,1.25-0.56-1.09m1,1.23-0.58-1.08M231,67.46l-0.61-1.07m1.09,1.19-0.61-1.06M232,67.7l-0.64-1m1.14,1.16-0.67-1M233,67.91l-0.67-1M233.51,68l-0.69-1m1.2,1.09-0.72-1m1.22,1.07-0.72-1m1.24,1-0.75-1m1.27,1-0.78-1m1.28,1-0.78-.94m1.3,1-0.81-.92m1.33,0.93-0.84-.9m1.35,0.9-0.85-.87m1.35,0.87-0.87-.86m1.38,0.84-0.89-.84m1.4,0.81-0.92-.82m1.43,0.78-0.93-.8m1.43,0.74-0.95-.78m1.45,0.71-1-.76M241.13,68l-1-.74M241.62,68l-1-.72m1.49,0.62-1-.7m1.51,0.59-1-.68m1.51,0.57-1-.66m1.53,0.54-1-.64m1.54,0.51-1.06-.62m1.54,0.49-1.06-.61m1.55,0.46L244,66.52M245.56,67l-1.08-.57M246,66.79L245,66.24m1.58,0.38-1.11-.53M247,66.45l-1.11-.52m1.58,0.33-1.12-.5m1.6,0.3-1.14-.47m1.6,0.27-1.13-.46m1.6,0.25-1.15-.44m1.6,0.23L248.19,65m1.6,0.22-1.15-.42m1.6,0.23-1.15-.44m1.6,0.26-1.13-.47m1.59,0.3L250,64.19m1.6,0.32L250.49,64m1.58,0.35-1.1-.53m1.57,0.38-1.09-.56M253,64.05l-1.09-.57m1.57,0.43-1.08-.59M254,63.79l-1.07-.6m1.54,0.48L253.39,63m1.54,0.5-1.05-.63m1.54,0.52-1-.64m1.53,0.53-1-.66m1.52,0.55-1-.67m1.52,0.57-1-.67M257.36,63l-1-.69m1.51,0.6-1-.7m1.5,0.61-1-.71m1.5,0.63-1-.71m1.49,0.64-1-.72m1.52-.07h-1m1-.49-0.53.42m0.53-.92-0.87.87m0.87-1.37-0.87.87m0.87-1.37-0.87.87m0.87-1.37-0.87.87m0.87-1.37-0.87.87m0.76-.61-0.76.11m1.26-.11L259,58.77m1.76,0.39-0.87-.87m1.37,0.87-0.87-.87m1.37,0.87-0.87-.87m1.37,0.87-0.87-.87M263,58.58l-1.15-.28m1.15-.22-0.65.22m0.65-.72-0.87.87M263,57.07l-0.87.87M263,56.57l-0.87.87M263,56.07l-0.87.87M263,55.57l-0.87.87M263,55.07l-0.87.87M263,54.57l-0.87.87M263,54.07l-0.87.87M263,53.57l-0.87.87M263,53.07l-0.87.87M263,52.57l-0.87.87M263,52.06l-0.87.87M263,51.56l-0.87.87M263,51.06l-0.87.87M263,50.56l-0.87.87M263,50.06l-0.87.87M263,49.56l-0.87.87M263,49.06l-0.87.87M263,48.56l-0.87.87M263,48.06l-0.87.87M263,47.56l-0.87.87M263,47.06l-0.87.87M263,46.55l-0.87.87M263,46.05l-0.87.87M263,45.55l-0.87.87M263,45.05l-0.87.87M263,44.55l-0.87.87M263,44.05l-0.87.87M263,43.55l-0.87.87M263,43l-0.87.87M263,42.55l-0.87.87M263,42l-0.87.87M263,41.55l-0.87.87M263,41l-0.87.87M263,40.54l-0.87.87M263,40l-0.87.87M263,39.54l-0.87.87M263,39l-0.87.87M263,38.54l-0.87.87M263,38l-0.87.87M263,37.54l-0.87.87M263,37l-0.87.87M263,36.54l-0.87.87M263,36l-0.87.87M263,35.54l-0.87.87M263,35l-0.87.87M263,34.53l-0.87.87M263,34l-0.87.87M263,33.53l-0.87.87M263,33l-0.87.87M263,32.53l-0.87.87M263,32l-0.87.87M263,31.53l-0.87.87M263,31l-0.87.87M263,30.53l-0.87.87M263,30l-0.87.87M263,29.53l-0.87.87M263,29l-0.87.87M263,28.52l-0.87.87M263,28l-0.87.87M263,27.52l-0.87.87M263,27l-0.87.87M263,26.52l-0.87.87M263,26l-0.87.87M263,25.52l-0.87.87M263,25l-0.87.87M263,24.52l-0.87.87M263,24l-0.87.87M263,23.52l-0.87.87M263,23l-0.87.87M263,22.51l-0.87.87M263,22l-0.87.87M263,21.51l-0.87.87M263,21l-0.87.87M263,20.51l-0.87.87M263,20l-0.87.87M263,19.51l-0.87.87M263,19l-0.87.87m0.33-1.7-0.33,1.2M262,18.18l0.17,0.7m-0.67-.7L262.35,19M261,18.18L261.85,19m-1.37-.87L261.35,19M260,18.18L260.85,19m-1.37-.87L260.35,19" transform="translate(-195.5)"/><rect class="cls-6" width="88.5" height="79.87"/></svg>