<?xml version="1.0" encoding="utf-8"?>
<!-- Generator: Adobe Illustrator 21.0.2, SVG Export Plug-In . SVG Version: 6.00 Build 0)  -->
<svg version="1.1" id="Layer_1" xmlns="http://www.w3.org/2000/svg" xmlns:xlink="http://www.w3.org/1999/xlink" x="0px" y="0px"
	 viewBox="0 0 253.6 300.1" style="enable-background:new 0 0 253.6 300.1;" xml:space="preserve"><defs><style>path{fill:none;stroke:#ffffff;stroke-miterlimit:10;}path{stroke-width:2px;}path{font-size:12px;}path{fill:#ffffff;font-family:Gotham;}path{letter-spacing:-1px;}path{font-size:7px;font-weight:700;}</style></defs>
<g>
	<path d="M52.1,82h-11v-8.9h32.3V82H62.3v27.9H52.1V82z"/>
	<path d="M71.3,95.8L71.3,95.8c0-8.2,6.6-15,15.7-15s15.7,6.7,15.7,14.8v0.1c0,8.1-6.6,14.9-15.8,14.9
		C77.9,110.6,71.3,103.9,71.3,95.8z M93.1,95.8L93.1,95.8c0-3.6-2.6-6.6-6.1-6.6c-3.6,0-5.9,2.9-5.9,6.4v0.1c0,3.5,2.5,6.4,6.1,6.4
		C90.7,102.1,93.1,99.2,93.1,95.8z"/>
	<path d="M107,81.4h10v3.8c1.9-2.4,4.4-4.4,8.6-4.4c6.8,0,12.6,5.6,12.6,14.7v0.1c0,9.3-5.8,14.9-12.6,14.9c-4.3,0-6.8-1.9-8.7-4.1
		v11.9h-10L107,81.4L107,81.4z M128.4,95.7L128.4,95.7c0-3.9-2.6-6.6-5.8-6.6c-3.3,0-5.8,2.7-5.8,6.5v0.1c0,3.8,2.6,6.5,5.8,6.5
		S128.4,99.6,128.4,95.7z"/>
	<path d="M163,82.3l-6.2,1.5l-1.9-7.9l10.8-3.1h7.4v37.1H163L163,82.3L163,82.3z"/>
	<path d="M178.8,91.6L178.8,91.6c0-10.5,6.6-19.3,17.1-19.3s17,8.6,17,19.1v0.1c0,10.4-6.6,19.2-17.1,19.2S178.8,102,178.8,91.6z
		 M202.6,91.6L202.6,91.6c0-6-2.7-10.3-6.8-10.3c-4.1,0-6.7,4.2-6.7,10.1v0.1c0,5.9,2.7,10.1,6.8,10.1
		C200,101.6,202.6,97.4,202.6,91.6z"/>
</g>
<g>
	<path d="M95.6,136.7H112v4.3h-11.7v4.6h10.3v4.3h-10.3v8.3h-4.7V136.7z"/>
	<path d="M115.7,136.7h4.7v8.5h8.7v-8.5h4.7v21.5h-4.7v-8.6h-8.7v8.6h-4.7V136.7z"/>
	<path d="M146.4,136.5h4.4l9.2,21.6h-4.9l-2-4.8H144l-2,4.8h-4.8L146.4,136.5z M151.4,149.2l-2.9-7l-2.9,7H151.4z"/>
</g>
<g>
	<path d="M44.2,191.9l2.8-3.3c1.9,1.6,4,2.6,6.4,2.6c1.9,0,3.1-0.8,3.1-2v-0.1c0-1.2-0.7-1.8-4.3-2.7c-4.3-1.1-7.1-2.3-7.1-6.6v-0.1
		c0-3.9,3.1-6.5,7.5-6.5c3.1,0,5.8,1,8,2.7l-2.5,3.6c-1.9-1.3-3.8-2.1-5.6-2.1c-1.8,0-2.8,0.8-2.8,1.9v0.1c0,1.4,0.9,1.9,4.6,2.8
		c4.4,1.1,6.8,2.7,6.8,6.4v0.1c0,4.3-3.3,6.7-7.9,6.7C50.1,195.3,46.8,194.2,44.2,191.9z"/>
	<path d="M64.8,178.5h4.7v2.4c1.1-1.5,2.7-2.7,5.1-2.7c3.8,0,7.5,3,7.5,8.5v0.1c0,5.5-3.6,8.5-7.5,8.5c-2.5,0-4-1.1-5.1-2.5v7.1
		h-4.7V178.5z M77.4,186.8L77.4,186.8c0-2.8-1.8-4.6-4-4.6s-4,1.8-4,4.5v0.1c0,2.7,1.8,4.5,4,4.5C75.6,191.3,77.4,189.6,77.4,186.8z
		"/>
	<path d="M84.7,186.9L84.7,186.9c0-4.8,3.8-8.6,8.9-8.6s8.9,3.8,8.9,8.5v0.1c0,4.7-3.8,8.6-8.9,8.6
		C88.5,195.4,84.7,191.6,84.7,186.9z M97.9,186.9L97.9,186.9c0-2.5-1.8-4.6-4.3-4.6c-2.7,0-4.3,2.1-4.3,4.5v0.1
		c0,2.4,1.8,4.5,4.3,4.5C96.3,191.3,97.9,189.3,97.9,186.9z"/>
	<path d="M105.9,178.5h4.7v2.3c1.1-1.4,2.5-2.6,4.8-2.6c3.5,0,5.6,2.3,5.6,6.1V195h-4.7v-9.2c0-2.2-1-3.3-2.8-3.3s-2.9,1.1-2.9,3.3
		v9.2h-4.7V178.5z"/>
	<path d="M123.8,192.8l2-3.1c1.8,1.3,3.7,2,5.2,2c1.4,0,2-0.5,2-1.2v-0.1c0-1-1.6-1.4-3.4-1.9c-2.3-0.7-4.9-1.8-4.9-4.9v-0.1
		c0-3.3,2.7-5.2,6-5.2c2.1,0,4.4,0.7,6.1,1.9l-1.8,3.2c-1.6-1-3.3-1.5-4.5-1.5c-1.1,0-1.7,0.5-1.7,1.1v0.1c0,0.9,1.6,1.4,3.3,2
		c2.3,0.8,5,1.9,5,4.9v0.1c0,3.7-2.7,5.3-6.3,5.3C128.5,195.3,125.9,194.5,123.8,192.8z"/>
	<path d="M139.7,186.9L139.7,186.9c0-4.8,3.8-8.6,8.9-8.6s8.9,3.8,8.9,8.5v0.1c0,4.7-3.8,8.6-8.9,8.6
		C143.4,195.4,139.7,191.6,139.7,186.9z M152.9,186.9L152.9,186.9c0-2.5-1.7-4.6-4.3-4.6c-2.7,0-4.3,2.1-4.3,4.5v0.1
		c0,2.4,1.8,4.5,4.3,4.5C151.3,191.3,152.9,189.3,152.9,186.9z"/>
	<path d="M160.8,178.5h4.7v3.3c1-2.3,2.5-3.7,5.2-3.6v4.9h-0.2c-3.1,0-5,1.9-5,5.8v6.1h-4.7V178.5z"/>
	<path d="M172.4,186.9L172.4,186.9c0-4.8,3.3-8.6,8.1-8.6c5.5,0,8,4.3,8,8.9c0,0.4,0,0.8-0.1,1.2h-11.5c0.5,2.1,1.9,3.2,4,3.2
		c1.6,0,2.7-0.5,4-1.7l2.7,2.4c-1.5,1.9-3.7,3.1-6.7,3.1C176.1,195.4,172.4,191.9,172.4,186.9z M184,185.5c-0.3-2.1-1.5-3.5-3.5-3.5
		c-1.9,0-3.2,1.4-3.6,3.5H184z"/>
	<path d="M191.3,186.8L191.3,186.8c0-5.6,3.6-8.6,7.5-8.6c2.5,0,4,1.1,5.1,2.5v-8.1h4.7V195h-4.7v-2.4c-1.1,1.5-2.7,2.7-5.1,2.7
		C194.9,195.3,191.3,192.3,191.3,186.8z M204,186.8L204,186.8c0-2.8-1.8-4.6-4-4.6s-4,1.8-4,4.5v0.1c0,2.7,1.8,4.5,4,4.5
		S204,189.5,204,186.8z"/>
</g>
<g>
	<path d="M48.1,221.1L48.1,221.1c0-6.2,4.8-11.2,11.5-11.2S71,214.8,71,221v0.1c0,6.1-4.8,11.1-11.5,11.1S48.1,227.3,48.1,221.1z
		 M66,221.1L66,221.1c0-3.7-2.7-6.8-6.5-6.8s-6.4,3-6.4,6.7v0.1c0,3.7,2.7,6.8,6.5,6.8C63.4,227.8,66,224.8,66,221.1z"/>
	<path d="M74.6,215.4h4.7v3.3c1-2.3,2.5-3.7,5.2-3.6v4.9h-0.2c-3.1,0-5,1.9-5,5.8v6.1h-4.7V215.4z"/>
	<path d="M87.6,209.4h4.9v4.1h-4.9V209.4z M87.7,215.4h4.7v16.5h-4.7V215.4z"/>
	<path d="M96.8,235.1l1.6-3.5c1.7,1,3.4,1.5,5.6,1.5c3.2,0,4.7-1.5,4.7-4.5v-0.8c-1.4,1.7-2.9,2.7-5.4,2.7c-3.8,0-7.3-2.8-7.3-7.7
		v-0.1c0-4.9,3.5-7.7,7.3-7.7c2.5,0,4.1,1.1,5.3,2.5v-2.1h4.7v12.7c0,2.9-0.7,5.1-2.1,6.5c-1.5,1.5-3.9,2.2-7.1,2.2
		C101.4,236.8,98.9,236.2,96.8,235.1z M108.7,222.8L108.7,222.8c0-2.3-1.8-3.9-4-3.9c-2.3,0-4,1.6-4,3.8v0.1c0,2.3,1.7,3.8,4,3.8
		C106.9,226.6,108.7,225,108.7,222.8z"/>
	<path d="M117.6,209.4h4.9v4.1h-4.9V209.4z M117.7,215.4h4.7v16.5h-4.7V215.4z"/>
	<path d="M126.7,215.4h4.7v2.3c1.1-1.4,2.5-2.6,4.8-2.6c3.5,0,5.6,2.3,5.6,6.1v10.7h-4.7v-9.2c0-2.2-1-3.3-2.8-3.3s-2.9,1.1-2.9,3.3
		v9.2h-4.7V215.4z"/>
	<path d="M144.9,227.1L144.9,227.1c0-3.7,2.7-5.3,6.6-5.3c1.7,0,2.9,0.3,4,0.7v-0.3c0-1.9-1.2-3-3.5-3c-1.8,0-3,0.3-4.5,0.9
		l-1.2-3.6c1.8-0.8,3.6-1.3,6.4-1.3c2.5,0,4.4,0.7,5.6,1.8c1.2,1.2,1.8,3,1.8,5.2v9.5h-4.5v-1.8c-1.1,1.3-2.7,2.1-5,2.1
		C147.4,232.1,144.9,230.4,144.9,227.1z M155.6,226v-0.8c-0.8-0.4-1.8-0.6-3-0.6c-2,0-3.2,0.8-3.2,2.3v0.1c0,1.3,1,2,2.5,2
		C154.1,228.9,155.6,227.7,155.6,226z"/>
	<path d="M164.6,227.2v-7.8h-2v-4h2v-4.2h4.7v4.2h3.9v4h-3.9v7c0,1.1,0.5,1.6,1.5,1.6c0.9,0,1.6-0.2,2.3-0.6v3.7c-1,0.6-2.1,1-3.7,1
		C166.6,232.1,164.6,231,164.6,227.2z"/>
	<path d="M175.4,223.7L175.4,223.7c0-4.8,3.8-8.6,8.9-8.6s8.9,3.8,8.9,8.5v0.1c0,4.7-3.8,8.6-8.9,8.6
		C179.2,232.2,175.4,228.4,175.4,223.7z M188.6,223.7L188.6,223.7c0-2.5-1.7-4.6-4.3-4.6c-2.7,0-4.3,2.1-4.3,4.5v0.1
		c0,2.4,1.8,4.5,4.3,4.5C187,228.2,188.6,226.1,188.6,223.7z"/>
	<path d="M196.6,215.4h4.7v3.3c1-2.3,2.5-3.7,5.2-3.6v4.9h-0.2c-3.1,0-5,1.9-5,5.8v6.1h-4.7V215.4z"/>
</g>
<g>
	<path d="M127.7,300.1c-0.3,0-0.6,0-0.9,0c-18.2,0.2-39.6-5.1-58.7-14.5c-12.6-6.2-29.6-10.9-50.5-14.1l-1.9-0.3v-17.5H0V46.4h15.7
		V28.9l1.9-0.3c20.9-3.1,37.9-7.9,50.5-14.1C87.2,5.1,108.6-0.2,126.8,0c18.2-0.2,39.6,5.1,58.7,14.5c12.6,6.2,29.6,10.9,50.5,14.1
		l1.9,0.3v17.5h15.7v207.3h-15.7v17.5l-1.9,0.3c-20.9,3.1-37.9,7.9-50.5,14.1C166.8,294.9,145.7,300.1,127.7,300.1z M20.1,267.5
		c20.5,3.2,37.3,8,50,14.2c18.5,9.1,39.2,14.3,56.7,14.1c17.6,0.2,38.3-5,56.8-14.1c12.6-6.2,29.4-11,50-14.2v-18.2h15.7V50.8h-15.7
		V32.7c-20.5-3.2-37.3-8-50-14.2c-18.5-9.1-39.2-14.2-56.7-14.1c-17.6-0.2-38.3,5-56.8,14.1c-12.6,6.2-29.4,11-50,14.2v18.1H4.4
		v198.5h15.7V267.5z"/>
	<path d="M127.1,280.5l-3.7-3.8l0.6-0.6l3.7,3.8L127.1,280.5z M124.9,280.4l-3.7-3.9l0.6-0.6l3.7,3.9L124.9,280.4z M129.3,280.4
		l-3.8-3.8l0.6-0.6l3.8,3.8L129.3,280.4z M122.6,280.4l-3.6-4l0.6-0.5l3.6,4L122.6,280.4z M131.6,280.4l-3.9-3.7l0.6-0.6l3.9,3.7
		L131.6,280.4z M120.4,280.3l-3.4-4.1l0.6-0.5l3.4,4.1L120.4,280.3z M133.9,280.2l-4-3.6l0.5-0.6l4,3.6L133.9,280.2z M118.2,280.1
		l-3.4-4.2l0.6-0.5l3.4,4.2L118.2,280.1z M136.1,280.1l-4.1-3.5l0.5-0.6l4.1,3.5L136.1,280.1z M115.9,279.9l-3.3-4.2l0.6-0.5
		l3.3,4.2L115.9,279.9z M138.3,279.8l-4.1-3.4l0.5-0.6l4.1,3.4L138.3,279.8z M113.7,279.6l-3.2-4.3l0.7-0.5l3.2,4.3L113.7,279.6z
		 M140.6,279.5l-4.2-3.3l0.5-0.6l4.2,3.3L140.6,279.5z M111.5,279.3l-3.2-4.4l0.7-0.5l3.2,4.4L111.5,279.3z M142.8,279.2l-4.3-3.2
		l0.5-0.7l4.3,3.2L142.8,279.2z M109.3,278.9l-3-4.4l0.7-0.5l3,4.4L109.3,278.9z M145,278.8l-4.3-3.2l0.5-0.7l4.3,3.2L145,278.8z
		 M107.1,278.5l-2.9-4.5l0.7-0.4l2.9,4.5L107.1,278.5z M147.2,278.4l-4.4-3.1l0.5-0.7l4.4,3.1L147.2,278.4z M104.9,278.1l-2.9-4.5
		l0.7-0.4l2.9,4.5L104.9,278.1z M149.4,278l-4.5-3l0.5-0.7l4.5,3L149.4,278z M102.7,277.6l-2.8-4.6l0.7-0.4l2.8,4.6L102.7,277.6z
		 M151.5,277.5l-4.5-2.9l0.4-0.7l4.5,2.9L151.5,277.5z M100.5,277.1l-2.7-4.6l0.7-0.4l2.7,4.6L100.5,277.1z M153.7,277l-4.6-2.8
		l0.4-0.7l4.6,2.8L153.7,277z M98.4,276.5l-2.7-4.7l0.7-0.4l2.7,4.7L98.4,276.5z M155.9,276.4l-4.6-2.7l0.4-0.7l4.6,2.7L155.9,276.4
		z M96.2,275.9l-2.6-4.7l0.7-0.4l2.6,4.7L96.2,275.9z M158,275.8l-4.7-2.7l0.4-0.7l4.7,2.7L158,275.8z M94,275.3l-2.4-4.8l0.7-0.4
		l2.4,4.8L94,275.3z M160.2,275.2l-4.7-2.6l0.4-0.7l4.7,2.6L160.2,275.2z M91.9,274.7l-2.4-4.8l0.7-0.4l2.4,4.8L91.9,274.7z
		 M162.3,274.5l-4.7-2.5l0.4-0.7l4.7,2.5L162.3,274.5z M89.8,273.9l-2.3-4.8l0.7-0.4l2.3,4.8L89.8,273.9z M164.4,273.8l-4.8-2.4
		l0.4-0.7l4.8,2.4L164.4,273.8z M87.7,273.2l-2.2-4.9l0.7-0.3l2.2,4.9L87.7,273.2z M166.5,273l-4.9-2.3l0.4-0.7l4.9,2.3L166.5,273z
		 M85.6,272.4l-2.2-4.9l0.8-0.3l2.2,4.9L85.6,272.4z M168.6,272.3l-4.9-2.3l0.3-0.7l4.9,2.3L168.6,272.3z M83.5,271.6l-2.1-5
		l0.8-0.3l2.1,5L83.5,271.6z M170.7,271.4l-4.9-2.2l0.3-0.8l4.9,2.2L170.7,271.4z M81.5,270.8l-2-5l0.8-0.3l2,5L81.5,270.8z
		 M172.8,270.6l-5-2.1l0.3-0.8l5,2.1L172.8,270.6z M79.4,269.9l-1.9-5l0.8-0.3l1.9,5L79.4,269.9z M174.8,269.7l-5-2l0.3-0.8l5,2
		L174.8,269.7z M77.3,269l-1.8-5.1l0.8-0.3l1.8,5.1L77.3,269z M176.9,268.8l-5-1.9l0.3-0.8l5,1.9L176.9,268.8z M75.4,268.1l-1.9-5.1
		l0.8-0.3l1.9,5.1L75.4,268.1z M178.8,267.9l-5-1.9l0.3-0.8l5,1.9L178.8,267.9z M73.4,267.2l-1.9-5l0.8-0.3l1.9,5L73.4,267.2z
		 M180.8,266.9l-5.1-1.9l0.3-0.8l5.1,1.9L180.8,266.9z M71.4,266.3l-2.1-5l0.8-0.3l2.1,5L71.4,266.3z M182.8,266.1l-5-1.9l0.3-0.8
		l5,1.9L182.8,266.1z M69.5,265.5l-2.2-4.9l0.7-0.3l2.2,4.9L69.5,265.5z M184.8,265.3l-5-2.1l0.3-0.8l5,2.1L184.8,265.3z
		 M67.4,264.7l-2.3-4.9l0.7-0.3l2.3,4.9L67.4,264.7z M186.8,264.5l-4.9-2.2l0.3-0.8l4.9,2.2L186.8,264.5z M65.4,263.9l-2.3-4.8
		l0.7-0.4l2.3,4.8L65.4,263.9z M188.8,263.8l-4.9-2.2l0.3-0.7l4.9,2.2L188.8,263.8z M63.4,263.2l-2.5-4.8l0.7-0.4l2.5,4.8
		L63.4,263.2z M190.8,263.1l-4.8-2.3l0.4-0.7l4.8,2.3L190.8,263.1z M61.3,262.5l-2.5-4.7l0.7-0.4l2.5,4.7L61.3,262.5z M192.9,262.4
		l-4.8-2.4l0.4-0.7l4.8,2.4L192.9,262.4z M59.2,261.9l-2.6-4.7l0.7-0.4l2.6,4.7L59.2,261.9z M194.9,261.8l-4.8-2.5l0.4-0.7l4.8,2.5
		L194.9,261.8z M57.2,261.3l-2.7-4.7l0.7-0.4l2.7,4.7L57.2,261.3z M197.1,261.2l-4.7-2.6l0.4-0.7l4.7,2.6L197.1,261.2z M55.1,260.7
		l-2.7-4.6l0.7-0.4l2.7,4.6L55.1,260.7z M199.1,260.6l-4.7-2.6l0.4-0.7l4.7,2.6L199.1,260.6z M53,260.2l-2.8-4.6l0.7-0.4l2.8,4.6
		L53,260.2z M201.2,260l-4.6-2.7l0.4-0.7l4.6,2.7L201.2,260z M50.9,259.6l-2.8-4.6l0.7-0.4l2.8,4.6L50.9,259.6z M203.3,259.5
		l-4.6-2.8l0.4-0.7l4.6,2.8L203.3,259.5z M48.8,259.1l-2.9-4.5l0.7-0.4l2.9,4.5L48.8,259.1z M205.5,259l-4.6-2.8l0.4-0.7l4.6,2.8
		L205.5,259z M46.7,258.7l-2.9-4.5l0.7-0.4l2.9,4.5L46.7,258.7z M207.6,258.5l-4.5-2.9l0.4-0.7l4.5,2.9L207.6,258.5z M44.5,258.2
		l-3-4.5l0.7-0.5l3,4.5L44.5,258.2z M209.7,258.1l-4.5-2.9l0.4-0.7l4.5,2.9L209.7,258.1z M42.4,257.8l-3-4.5l0.7-0.5l3,4.5
		L42.4,257.8z M211.8,257.7l-4.5-3l0.5-0.7l4.5,3L211.8,257.7z M40.3,257.3l-3.1-4.4l0.7-0.5l3.1,4.4L40.3,257.3z M214,257.2l-4.5-3
		l0.5-0.7l4.5,3L214,257.2z M38.1,257l-3.1-4.4l0.7-0.5l3.1,4.4L38.1,257z M216.1,256.9l-4.4-3.1l0.5-0.7l4.4,3.1L216.1,256.9z
		 M36,256.6l-3.1-4.4l0.7-0.5l3.1,4.4L36,256.6z M218.2,256.5l-4.4-3.1l0.5-0.7l4.4,3.1L218.2,256.5z M33.8,256.2l-1.3-1.8l-0.1,1.2
		l-0.8-0.1l0.2-2.2l-1.1-1.6l0.7-0.5L32,252l0.1-0.7l0.8,0.1l-0.2,1.7l1.8,2.5L33.8,256.2z M220.4,256.1L216,253l0.5-0.7l4.4,3.1
		L220.4,256.1z M222.6,255.8l-4.4-3.2l0.5-0.7l4.4,3.2L222.6,255.8z M28.9,253.4l-0.6-0.6l3.8-3.8l0.6,0.6L28.9,253.4z M225.1,252.4
		h-4.5v-0.8h0.8l-0.4-0.4l3.8-3.8l0.6,0.6l-3.7,3.7h1l-0.2-0.3l2.3-1.8l0.5,0.6l-1.8,1.5h1.6L225.1,252.4z M28.9,251.2l-0.6-0.6
		l3.8-3.8l0.6,0.6L28.9,251.2z M221.6,249.5l-0.6-0.6l3.8-3.8l0.6,0.6L221.6,249.5z M28.9,249l-0.6-0.6l3.8-3.8l0.6,0.6L28.9,249z
		 M221.6,247.3l-0.6-0.6l3.8-3.8l0.6,0.6L221.6,247.3z M28.9,246.8l-0.6-0.6l3.8-3.8l0.6,0.6L28.9,246.8z M221.6,245.1l-0.6-0.6
		l3.8-3.8l0.6,0.6L221.6,245.1z M28.9,244.6l-0.6-0.6l3.8-3.8l0.6,0.6L28.9,244.6z M221.6,242.9l-0.6-0.6l1.7-1.7l-1.4,0.2l-0.1-0.8
		l2.4-0.4l0.2-0.2l-2.7-0.8l0.2-0.8l3.1,1l0.3-0.3l0.5,0.5l1.6,0.5l-0.2,0.8l-1.9-0.6l-0.2,0.2l0.1,0.4l-0.6,0.1L221.6,242.9z
		 M28.9,242.4l-0.6-0.6l3.8-3.8l0.6,0.6L28.9,242.4z M235.3,240.2l-3.8-3.8l0.6-0.6l3.8,3.8L235.3,240.2z M233.1,240.2l-3.8-3.8
		l0.6-0.6l3.8,3.8L233.1,240.2z M230.9,240.2l-3.8-3.8l0.6-0.6l3.8,3.8L230.9,240.2z M27.7,240.2l-3.8-3.8l0.6-0.6l3.7,3.7v-1
		l-2.1-2.1l0.6-0.6l1.5,1.5v-1.2H29v2l1.5,1.5l-0.6,0.6l-0.9-0.9v0.6h-0.8v-0.2L27.7,240.2z M25.5,240.2l-3.8-3.8l0.6-0.6l3.8,3.8
		L25.5,240.2z M23.3,240.2l-3.8-3.8l0.6-0.6l3.8,3.8L23.3,240.2z M21.1,240.2l-1.9-1.9l0.4,1.5l-0.8,0.2l-0.7-2.7l-0.7,2.7l-0.8-0.2
		l0.9-3.2l-0.2-0.2l0.3-0.3l0.4-1.5l0.8,0.2l-0.4,1.6l0.4,0.4l0,0l0,0l2.8,2.8L21.1,240.2z M228.7,240.2l-3.8-3.8l0.6-0.6l3.8,3.8
		L228.7,240.2z M238.9,237.8l-3.3-0.8l-0.1,0.1l-0.2-0.2l-1.4-0.4l0.2-0.8l1.3,0.3l3.4-3.4l0.6,0.6l-2.1,2.1l1.6-0.5l0.3,0.8
		l-2.4,0.8l2.4,0.6L238.9,237.8z M15,236.6l-0.6-0.6l3.8-3.8l0.6,0.6L15,236.6z M235.5,234.9l-0.6-0.6l3.8-3.8l0.6,0.6L235.5,234.9z
		 M15,234.4l-0.6-0.6l3.8-3.8l0.6,0.6L15,234.4z M235.5,232.7l-0.6-0.6l3.8-3.8l0.6,0.6L235.5,232.7z M15,232.2l-0.6-0.6l3.8-3.8
		l0.6,0.6L15,232.2z M235.5,230.5l-0.6-0.6l3.8-3.8l0.6,0.6L235.5,230.5z M15,230l-0.6-0.6l3.8-3.8l0.6,0.6L15,230z M235.5,228.3
		l-0.6-0.6l3.8-3.8l0.6,0.6L235.5,228.3z M15,227.8l-0.6-0.6l3.8-3.8l0.6,0.6L15,227.8z M235.5,226.1l-0.6-0.6l3.8-3.8l0.6,0.6
		L235.5,226.1z M15,225.6l-0.6-0.6l3.8-3.8l0.6,0.6L15,225.6z M235.5,223.9l-0.6-0.6l3.8-3.8l0.6,0.6L235.5,223.9z M15,223.4
		l-0.6-0.6l3.8-3.8l0.6,0.6L15,223.4z M235.5,221.7l-0.6-0.6l3.8-3.8l0.6,0.6L235.5,221.7z M15,221.2l-0.6-0.6l3.8-3.8l0.6,0.6
		L15,221.2z M235.5,219.5l-0.6-0.6l3.8-3.8l0.6,0.6L235.5,219.5z M15,219l-0.6-0.6l3.8-3.8l0.6,0.6L15,219z M235.5,217.3l-0.6-0.6
		l3.8-3.8l0.6,0.6L235.5,217.3z M15,216.8l-0.6-0.6l3.8-3.8l0.6,0.6L15,216.8z M235.5,215.1l-0.6-0.6l3.8-3.8l0.6,0.6L235.5,215.1z
		 M15,214.6l-0.6-0.6l3.8-3.8l0.6,0.6L15,214.6z M235.5,212.9l-0.6-0.6l3.8-3.8l0.6,0.6L235.5,212.9z M15,212.4l-0.6-0.6l3.8-3.8
		l0.6,0.6L15,212.4z M235.5,210.7l-0.6-0.6l3.8-3.8l0.6,0.6L235.5,210.7z M15,210.2l-0.6-0.6l3.8-3.8l0.6,0.6L15,210.2z
		 M235.5,208.5l-0.6-0.6l3.8-3.8l0.6,0.6L235.5,208.5z M15,208l-0.6-0.6l3.8-3.8l0.6,0.6L15,208z M235.5,206.3l-0.6-0.6l3.8-3.8
		l0.6,0.6L235.5,206.3z M15,205.8l-0.6-0.6l3.8-3.8l0.6,0.6L15,205.8z M235.5,204.1l-0.6-0.6l3.8-3.8l0.6,0.6L235.5,204.1z
		 M15,203.6l-0.6-0.6l3.8-3.8l0.6,0.6L15,203.6z M235.5,201.9l-0.6-0.6l3.8-3.8l0.6,0.6L235.5,201.9z M15,201.4l-0.6-0.6l3.8-3.8
		l0.6,0.6L15,201.4z M235.5,199.7l-0.6-0.6l3.8-3.8l0.6,0.6L235.5,199.7z M15,199.2l-0.6-0.6l3.8-3.8l0.6,0.6L15,199.2z
		 M235.5,197.5l-0.6-0.6l3.8-3.8l0.6,0.6L235.5,197.5z M15,197.1l-0.6-0.6l3.8-3.8l0.6,0.6L15,197.1z M235.5,195.3l-0.6-0.6l3.8-3.8
		l0.6,0.6L235.5,195.3z M15,194.9l-0.6-0.6l3.8-3.8l0.6,0.6L15,194.9z M235.5,193.2l-0.6-0.6l3.8-3.8l0.6,0.6L235.5,193.2z
		 M15,192.7l-0.6-0.6l3.8-3.8l0.6,0.6L15,192.7z M235.5,191l-0.6-0.6l3.8-3.8l0.6,0.6L235.5,191z M15,190.5l-0.6-0.6l3.8-3.8
		l0.6,0.6L15,190.5z M235.5,188.8l-0.6-0.6l3.8-3.8l0.6,0.6L235.5,188.8z M15,188.3l-0.6-0.6l3.8-3.8l0.6,0.6L15,188.3z
		 M235.5,186.6l-0.6-0.6l3.8-3.8l0.6,0.6L235.5,186.6z M15,186.1l-0.6-0.6l3.8-3.8l0.6,0.6L15,186.1z M235.5,184.4l-0.6-0.6l3.8-3.8
		l0.6,0.6L235.5,184.4z M15,183.9l-0.6-0.6l3.8-3.8l0.6,0.6L15,183.9z M235.5,182.2l-0.6-0.6l3.8-3.8l0.6,0.6L235.5,182.2z
		 M15,181.7l-0.6-0.6l3.8-3.8l0.6,0.6L15,181.7z M235.5,180l-0.6-0.6l3.8-3.8l0.6,0.6L235.5,180z M15,179.5l-0.6-0.6l3.8-3.8
		l0.6,0.6L15,179.5z M235.5,177.8l-0.6-0.6l3.8-3.8l0.6,0.6L235.5,177.8z M15,177.3l-0.6-0.6l3.8-3.8l0.6,0.6L15,177.3z
		 M235.5,175.6l-0.6-0.6l3.8-3.8l0.6,0.6L235.5,175.6z M15,175.1l-0.6-0.6l3.8-3.8l0.6,0.6L15,175.1z M235.5,173.4l-0.6-0.6l3.8-3.8
		l0.6,0.6L235.5,173.4z M15,172.9l-0.6-0.6l3.8-3.8l0.6,0.6L15,172.9z M235.5,171.2l-0.6-0.6l3.8-3.8l0.6,0.6L235.5,171.2z
		 M15,170.7l-0.6-0.6l3.8-3.8l0.6,0.6L15,170.7z M235.5,169l-0.6-0.6l3.8-3.8l0.6,0.6L235.5,169z M15,168.5l-0.6-0.6l3.8-3.8
		l0.6,0.6L15,168.5z M235.5,166.8l-0.6-0.6l3.8-3.8l0.6,0.6L235.5,166.8z M15,166.3l-0.6-0.6l3.8-3.8l0.6,0.6L15,166.3z
		 M235.5,164.6l-0.6-0.6l3.8-3.8l0.6,0.6L235.5,164.6z M15,164.1l-0.6-0.6l3.8-3.8l0.6,0.6L15,164.1z M235.5,162.4l-0.6-0.6l3.8-3.8
		l0.6,0.6L235.5,162.4z M15,161.9l-0.6-0.6l3.8-3.8l0.6,0.6L15,161.9z M235.5,160.2l-0.6-0.6l3.8-3.8l0.6,0.6L235.5,160.2z
		 M15,159.7l-0.6-0.6l3.8-3.8l0.6,0.6L15,159.7z M235.5,158l-0.6-0.6l3.8-3.8l0.6,0.6L235.5,158z M15,157.5l-0.6-0.6l3.8-3.8
		l0.6,0.6L15,157.5z M235.5,155.8l-0.6-0.6l3.8-3.8l0.6,0.6L235.5,155.8z M15,155.3l-0.6-0.6l3.8-3.8l0.6,0.6L15,155.3z
		 M235.5,153.6l-0.6-0.6l3.8-3.8l0.6,0.6L235.5,153.6z M15,153.1l-0.6-0.6l3.8-3.8l0.6,0.6L15,153.1z M235.5,151.4l-0.6-0.6l3.8-3.8
		l0.6,0.6L235.5,151.4z M15,150.9l-0.6-0.6l3.8-3.8l0.6,0.6L15,150.9z M235.5,149.2l-0.6-0.6l3.8-3.8l0.6,0.6L235.5,149.2z
		 M15,148.7l-0.6-0.6l3.8-3.8l0.6,0.6L15,148.7z M235.5,147l-0.6-0.6l3.8-3.8l0.6,0.6L235.5,147z M15,146.5l-0.6-0.6l3.8-3.8
		l0.6,0.6L15,146.5z M235.5,144.8l-0.6-0.6l3.8-3.8l0.6,0.6L235.5,144.8z M15,144.3l-0.6-0.6l3.8-3.8l0.6,0.6L15,144.3z
		 M235.5,142.6l-0.6-0.6l3.8-3.8l0.6,0.6L235.5,142.6z M15,142.1l-0.6-0.6l3.8-3.8l0.6,0.6L15,142.1z M235.5,140.4l-0.6-0.6l3.8-3.8
		l0.6,0.6L235.5,140.4z M15,139.9l-0.6-0.6l3.8-3.8l0.6,0.6L15,139.9z M235.5,138.2l-0.6-0.6l3.8-3.8l0.6,0.6L235.5,138.2z
		 M15,137.8l-0.6-0.6l3.8-3.8l0.6,0.6L15,137.8z M235.5,136.1l-0.6-0.6l3.8-3.8l0.6,0.6L235.5,136.1z M15,135.6l-0.6-0.6l3.8-3.8
		l0.6,0.6L15,135.6z M235.5,133.9l-0.6-0.6l3.8-3.8l0.6,0.6L235.5,133.9z M15,133.4l-0.6-0.6l3.8-3.8l0.6,0.6L15,133.4z
		 M235.5,131.7l-0.6-0.6l3.8-3.8l0.6,0.6L235.5,131.7z M15,131.2l-0.6-0.6l3.8-3.8l0.6,0.6L15,131.2z M235.5,129.5l-0.6-0.6l3.8-3.8
		l0.6,0.6L235.5,129.5z M15,129l-0.6-0.6l3.8-3.8l0.6,0.6L15,129z M235.5,127.3l-0.6-0.6l3.8-3.8l0.6,0.6L235.5,127.3z M15,126.8
		l-0.6-0.6l3.8-3.8l0.6,0.6L15,126.8z M235.5,125.1l-0.6-0.6l3.8-3.8l0.6,0.6L235.5,125.1z M15,124.6l-0.6-0.6l3.8-3.8l0.6,0.6
		L15,124.6z M235.5,122.9l-0.6-0.6l3.8-3.8l0.6,0.6L235.5,122.9z M15,122.4l-0.6-0.6l3.8-3.8l0.6,0.6L15,122.4z M235.5,120.7
		l-0.6-0.6l3.8-3.8l0.6,0.6L235.5,120.7z M15,120.2l-0.6-0.6l3.8-3.8l0.6,0.6L15,120.2z M235.5,118.5l-0.6-0.6l3.8-3.8l0.6,0.6
		L235.5,118.5z M15,118l-0.6-0.6l3.8-3.8l0.6,0.6L15,118z M235.5,116.3l-0.6-0.6l3.8-3.8l0.6,0.6L235.5,116.3z M15,115.8l-0.6-0.6
		l3.8-3.8l0.6,0.6L15,115.8z M235.5,114.1l-0.6-0.6l3.8-3.8l0.6,0.6L235.5,114.1z M15,113.6l-0.6-0.6l3.8-3.8l0.6,0.6L15,113.6z
		 M235.5,111.9l-0.6-0.6l3.8-3.8l0.6,0.6L235.5,111.9z M15,111.4l-0.6-0.6l3.8-3.8l0.6,0.6L15,111.4z M235.5,109.7l-0.6-0.6l3.8-3.8
		l0.6,0.6L235.5,109.7z M15,109.2l-0.6-0.6l3.8-3.8l0.6,0.6L15,109.2z M235.5,107.5l-0.6-0.6l3.8-3.8l0.6,0.6L235.5,107.5z M15,107
		l-0.6-0.6l3.8-3.8l0.6,0.6L15,107z M235.5,105.3l-0.6-0.6l3.8-3.8l0.6,0.6L235.5,105.3z M15,104.8l-0.6-0.6l3.8-3.8l0.6,0.6
		L15,104.8z M235.5,103.1l-0.6-0.6l3.8-3.8l0.6,0.6L235.5,103.1z M15,102.6l-0.6-0.6l3.8-3.8l0.6,0.6L15,102.6z M235.5,100.9
		l-0.6-0.6l3.8-3.8l0.6,0.6L235.5,100.9z M15,100.4l-0.6-0.6l3.8-3.8l0.6,0.6L15,100.4z M235.5,98.7l-0.6-0.6l3.8-3.8l0.6,0.6
		L235.5,98.7z M15,98.2l-0.6-0.6l3.8-3.8l0.6,0.6L15,98.2z M235.5,96.5l-0.6-0.6l3.8-3.8l0.6,0.6L235.5,96.5z M15,96l-0.6-0.6
		l3.8-3.8l0.6,0.6L15,96z M235.5,94.3l-0.6-0.6l3.8-3.8l0.6,0.6L235.5,94.3z M15,93.8l-0.6-0.6l3.8-3.8l0.6,0.6L15,93.8z
		 M235.5,92.1l-0.6-0.6l3.8-3.8l0.6,0.6L235.5,92.1z M15,91.6L14.4,91l3.8-3.8l0.6,0.6L15,91.6z M235.5,89.9l-0.6-0.6l3.8-3.8
		l0.6,0.6L235.5,89.9z M15,89.4l-0.6-0.6l3.8-3.8l0.6,0.6L15,89.4z M235.5,87.7l-0.6-0.6l3.8-3.8l0.6,0.6L235.5,87.7z M15,87.2
		l-0.6-0.6l3.8-3.8l0.6,0.6L15,87.2z M235.5,85.5l-0.6-0.6l3.8-3.8l0.6,0.6L235.5,85.5z M15,85l-0.6-0.6l3.8-3.8l0.6,0.6L15,85z
		 M235.5,83.3l-0.6-0.6l3.8-3.8l0.6,0.6L235.5,83.3z M15,82.8l-0.6-0.6l3.8-3.8l0.6,0.6L15,82.8z M235.5,81.1l-0.6-0.6l3.8-3.8
		l0.6,0.6L235.5,81.1z M15,80.7l-0.6-0.6l3.8-3.8l0.6,0.6L15,80.7z M235.5,78.9l-0.6-0.6l3.8-3.8l0.6,0.6L235.5,78.9z M15,78.5
		l-0.6-0.6l3.8-3.8l0.6,0.6L15,78.5z M235.5,76.8l-0.6-0.6l3.8-3.8l0.6,0.6L235.5,76.8z M15,76.3l-0.6-0.6l3.8-3.8l0.6,0.6L15,76.3z
		 M235.5,74.6l-0.6-0.6l3.8-3.8l0.6,0.6L235.5,74.6z M15,74.1l-0.6-0.6l3.8-3.8l0.6,0.6L15,74.1z M235.5,72.4l-0.6-0.6l3.8-3.8
		l0.6,0.6L235.5,72.4z M15,71.9l-0.6-0.6l3.8-3.8l0.6,0.6L15,71.9z M235.5,70.2l-0.6-0.6l3.8-3.8l0.6,0.6L235.5,70.2z M15,69.7
		l-0.6-0.6l3.8-3.8l0.6,0.6L15,69.7z M235.5,68l-0.6-0.6l3.8-3.8l0.6,0.6L235.5,68z M15,67.5l-0.6-0.6l2.1-2.1l-1.6,0.5l-0.3-0.8
		l2.4-0.8l-2.4-0.6l0.2-0.8l3.3,0.8l0.1-0.1l0.2,0.2l1.4,0.4l-0.2,0.8l-1.3-0.3L15,67.5z M235.6,65.6l-0.8-0.2l0.4-1.6l-0.4-0.4l0,0
		l0,0l-2.8-2.8l0.6-0.6l1.9,1.9l-0.4-1.5l0.8-0.2l0.7,2.7l0.7-2.7l0.8,0.2l-0.9,3.2l0.2,0.2l-0.3,0.3L235.6,65.6z M229.2,64.3
		l-3.8-3.8l0.6-0.6l3.8,3.8L229.2,64.3z M227,64.3l-3.8-3.8l-1.6,1.6l-0.6-0.6l3.8-3.8l0.6,0.6l-1.6,1.6l3.8,3.8L227,64.3z
		 M28.2,64.3l-3.8-3.8l0.6-0.6l3.8,3.8L28.2,64.3z M26,64.3l-3.8-3.8l0.6-0.6l3.8,3.8L26,64.3z M23.8,64.3L20,60.5l0.6-0.6l3.8,3.8
		L23.8,64.3z M21.6,64.3l-3.8-3.8l0.6-0.6l3.8,3.8L21.6,64.3z M233.6,64.3l-3.8-3.8l0.6-0.6l3.8,3.8L233.6,64.3z M231.4,64.3
		l-3.8-3.8l0.6-0.6l3.8,3.8L231.4,64.3z M32.3,62.3l-3.1-1l-0.3,0.3l-0.5-0.5l-1.6-0.5l0.2-0.8l1.9,0.6l0.2-0.2L29,59.8l0.6-0.1
		l2.5-2.5l0.6,0.6L31,59.5l1.4-0.2l0.1,0.8l-2.4,0.4l-0.2,0.2l2.7,0.8L32.3,62.3z M221.6,59.9l-0.6-0.6l3.8-3.8l0.6,0.6L221.6,59.9z
		 M28.9,59.4l-0.6-0.6l3.8-3.8l0.6,0.6L28.9,59.4z M221.6,57.7l-0.6-0.6l3.8-3.8l0.6,0.6L221.6,57.7z M28.9,57.2l-0.6-0.6l3.8-3.8
		l0.6,0.6L28.9,57.2z M221.6,55.5l-0.6-0.6l3.8-3.8l0.6,0.6L221.6,55.5z M28.9,55l-0.6-0.6l3.8-3.8l0.6,0.6L28.9,55z M221.6,53.3
		l-0.6-0.6l3.8-3.8l0.6,0.6L221.6,53.3z M28.9,52.9l-0.6-0.6l3.7-3.7h-1l0.2,0.3l-2.3,1.8l-0.5-0.6l1.8-1.4h-1.6v-0.8h4.5v0.8h-0.8
		l0.4,0.4L28.9,52.9z M221.6,51.2l-0.6-0.6l3.8-3.8l0.6,0.6L221.6,51.2z M222.4,48.8l-0.6-0.8l-0.1,0.8l-0.8-0.1l0.2-1.7l-1.8-2.5
		L220,44l1.3,1.8l0.1-1.2l0.8,0.1l-0.2,2.2l1.1,1.6L222.4,48.8z M220.2,48.4l-3.1-4.4l0.7-0.5l3.1,4.4L220.2,48.4z M35,48.2L30.6,45
		l0.5-0.7l4.4,3.2L35,48.2z M218,48.1l-3.1-4.4l0.7-0.5l3.1,4.4L218,48.1z M37.2,47.8l-4.4-3.1l0.5-0.7l4.4,3.1L37.2,47.8z
		 M215.8,47.7l-3.1-4.4l0.7-0.5l3.1,4.4L215.8,47.7z M39.4,47.4L35,44.3l0.5-0.7l4.4,3.1L39.4,47.4z M213.6,47.3l-3-4.5l0.7-0.5
		l3,4.5L213.6,47.3z M41.6,47l-4.4-3.1l0.5-0.7l4.4,3.1L41.6,47z M211.5,46.9l-3-4.5l0.7-0.5l3,4.5L211.5,46.9z M43.8,46.6l-4.5-3
		l0.5-0.7l4.5,3L43.8,46.6z M209.3,46.5l-2.9-4.5l0.7-0.4l2.9,4.5L209.3,46.5z M45.9,46.2l-4.5-3l0.5-0.7l4.5,3L45.9,46.2z
		 M207.1,46l-2.9-4.5l0.7-0.4l2.9,4.5L207.1,46z M48.1,45.7l-4.5-2.9l0.4-0.7l4.5,2.9L48.1,45.7z M204.9,45.5l-2.8-4.6l0.7-0.4
		l2.8,4.6L204.9,45.5z M50.3,45.2l-4.5-2.9l0.4-0.7l4.5,2.9L50.3,45.2z M202.8,45l-2.8-4.6l0.7-0.4l2.8,4.6L202.8,45z M52.4,44.7
		l-4.6-2.8l0.4-0.7l4.6,2.8L52.4,44.7z M200.6,44.5l-2.7-4.6l0.7-0.4l2.7,4.6L200.6,44.5z M54.6,44.1L50,41.3l0.4-0.7l4.6,2.8
		L54.6,44.1z M198.5,44l-2.7-4.7l0.7-0.4l2.7,4.7L198.5,44z M56.7,43.6l-4.6-2.7l0.4-0.7l4.6,2.7L56.7,43.6z M196.3,43.4l-2.6-4.7
		l0.7-0.4L197,43L196.3,43.4z M58.9,42.9l-4.7-2.6l0.4-0.7l4.7,2.6L58.9,42.9z M194.2,42.8l-2.5-4.7l0.7-0.4l2.5,4.7L194.2,42.8z
		 M61,42.3l-4.7-2.6l0.4-0.7l4.7,2.6L61,42.3z M192.1,42.1l-2.5-4.8l0.7-0.4l2.5,4.8L192.1,42.1z M63.2,41.6l-4.8-2.5l0.4-0.7
		l4.8,2.5L63.2,41.6z M189.9,41.4l-2.3-4.8l0.7-0.4l2.3,4.8L189.9,41.4z M65.2,40.9l-4.8-2.4l0.4-0.7l4.8,2.4L65.2,40.9z
		 M187.8,40.7l-2.3-4.9l0.7-0.3l2.3,4.9L187.8,40.7z M67.4,40.2l-4.8-2.3l0.4-0.7l4.8,2.3L67.4,40.2z M185.7,40l-2.2-4.9l0.7-0.3
		l2.2,4.9L185.7,40z M69.5,39.4l-4.9-2.2l0.3-0.7l4.9,2.2L69.5,39.4z M183.6,39.2l-2.1-5l0.8-0.3l2.1,5L183.6,39.2z M71.6,38.6
		l-4.9-2.2l0.3-0.8l4.9,2.2L71.6,38.6z M181.5,38.3l-1.9-5l0.8-0.3l1.9,5L181.5,38.3z M73.6,37.7l-5-2.1l0.3-0.8l5,2.1L73.6,37.7z
		 M179.5,37.4l-1.9-5.1l0.8-0.3l1.9,5.1L179.5,37.4z M75.7,36.8l-5-1.9l0.3-0.8l5,1.9L75.7,36.8z M177.5,36.5l-1.8-5.1l0.8-0.3
		l1.8,5.1L177.5,36.5z M77.7,35.9L72.6,34l0.3-0.8l5.1,1.9L77.7,35.9z M175.5,35.6l-1.9-5l0.8-0.3l1.9,5L175.5,35.6z M79.6,34.9
		l-5-1.9l0.3-0.8l5,1.9L79.6,34.9z M173.5,34.7l-2-5l0.8-0.3l2,5L173.5,34.7z M81.6,34.1l-5-1.9l0.3-0.8l5,1.9L81.6,34.1z
		 M171.5,33.8l-2.1-5l0.8-0.3l2.1,5L171.5,33.8z M83.6,33.2l-5-2l0.3-0.8l5,2L83.6,33.2z M169.5,33l-2.2-4.9l0.8-0.3l2.2,4.9
		L169.5,33z M85.6,32.4l-5-2.1l0.3-0.8l5,2.1L85.6,32.4z M167.5,32.2l-2.2-4.9L166,27l2.2,4.9L167.5,32.2z M87.6,31.7l-4.9-2.2
		l0.3-0.8l4.9,2.2L87.6,31.7z M165.5,31.4l-2.3-4.8l0.7-0.4l2.3,4.8L165.5,31.4z M89.6,30.9l-4.9-2.3l0.3-0.7l4.9,2.3L89.6,30.9z
		 M163.5,30.7l-2.4-4.8l0.7-0.4l2.4,4.8L163.5,30.7z M91.7,30.2l-4.9-2.3l0.4-0.7l4.9,2.3L91.7,30.2z M161.4,30l-2.4-4.8l0.7-0.4
		l2.4,4.8L161.4,30z M93.7,29.5l-4.8-2.4l0.4-0.7l4.8,2.4L93.7,29.5z M159.4,29.4l-2.6-4.7l0.7-0.4l2.6,4.7L159.4,29.4z M95.8,28.9
		l-4.7-2.5l0.4-0.7l4.7,2.5L95.8,28.9z M157.3,28.7l-2.7-4.7l0.7-0.4l2.7,4.7L157.3,28.7z M97.9,28.3l-4.7-2.6l0.4-0.7l4.7,2.6
		L97.9,28.3z M155.2,28.1l-2.7-4.6l0.7-0.4l2.7,4.6L155.2,28.1z M100,27.7L95.3,25l0.4-0.7l4.7,2.7L100,27.7z M153.1,27.6l-2.8-4.6
		l0.7-0.4l2.8,4.6L153.1,27.6z M102,27.2l-4.6-2.7l0.4-0.7l4.6,2.7L102,27.2z M151,27.1l-2.9-4.5l0.7-0.4l2.9,4.5L151,27.1z
		 M104.2,26.7l-4.6-2.8l0.4-0.7l4.6,2.8L104.2,26.7z M148.9,26.6l-2.9-4.5l0.7-0.4l2.9,4.5L148.9,26.6z M106.3,26.3l-4.5-2.9
		l0.4-0.7l4.5,2.9L106.3,26.3z M146.8,26.1l-3-4.4l0.7-0.5l3,4.4L146.8,26.1z M108.3,25.8l-4.5-3l0.5-0.7l4.5,3L108.3,25.8z
		 M144.7,25.7l-3.2-4.4l0.7-0.5l3.2,4.4L144.7,25.7z M110.5,25.5l-4.4-3.1l0.5-0.7l4.4,3.1L110.5,25.5z M142.6,25.4l-3.2-4.3
		l0.7-0.5l3.2,4.3L142.6,25.4z M112.6,25.1l-4.3-3.2l0.5-0.7l4.3,3.2L112.6,25.1z M140.5,25l-3.3-4.2l0.6-0.5l3.3,4.2L140.5,25z
		 M114.7,24.8l-4.3-3.2l0.5-0.7l4.3,3.2L114.7,24.8z M138.3,24.8l-3.4-4.2l0.6-0.5l3.4,4.2L138.3,24.8z M116.9,24.6l-4.2-3.3
		l0.5-0.6l4.2,3.3L116.9,24.6z M136.2,24.5l-3.4-4.1l0.6-0.5l3.4,4.1L136.2,24.5z M119,24.4l-4.1-3.4l0.5-0.6l4.1,3.4L119,24.4z
		 M134,24.3l-3.6-4l0.6-0.5l3.6,4L134,24.3z M121.1,24.2l-4.1-3.5l0.5-0.6l4.1,3.5L121.1,24.2z M131.9,24.2l-3.7-3.9l0.6-0.6
		l3.7,3.9L131.9,24.2z M123.3,24.1l-4-3.6l0.5-0.6l4,3.6L123.3,24.1z M129.7,24.1l-3.7-3.8l0.6-0.6l3.7,3.8L129.7,24.1z M125.5,24.1
		l-3.9-3.7l0.6-0.6l3.9,3.7L125.5,24.1z M127.6,24.1l-3.8-3.8l0.6-0.6l3.8,3.8L127.6,24.1z"/>
</g>
</svg>
