<svg id="Layer_1" data-name="Layer 1" xmlns="http://www.w3.org/2000/svg" viewBox="0 0 68.76 70.62"><defs><style>.cls-1,.cls-6{fill:none;stroke-miterlimit:10;}.cls-1{stroke:#ffffff;stroke-width:0.56px;}.cls-2{font-size:12px;}.cls-2,.cls-4{fill:#ffffff;font-family:Gotham;}.cls-3{letter-spacing:-1px;}.cls-4{font-size:7px;font-weight:700;}.cls-5{opacity:0.1;}.cls-6{stroke:#ffffff;stroke-width:3px;}</style></defs><title>top-25-lend-mkt</title><path class="cls-1" d="M68.76,51.4h-3m3-1.5h-3m3-1.5h-3m3-1.5h-3m3-1.5h-3m3-1.5h-3m3-1.5h-3m3-1.5h-3m3-1.5h-3m3-1.5h-3m3-1.5h-3m3-1.5h-3m3-1.5h-3m3-1.5h-3m3-1.5h-3m3-1.5h-3m3-1.5h-3m3-1.5h-3m3-1.5h-3m3-1.5h-3m3-1.5h-3m3-1.5h-3m1-2.11-1.44,2.63M65.47,17L64,19.66m0.12-3.35-1.44,2.63m0.12-3.35-1.44,2.63m0.12-3.35L60.07,17.5m0.12-3.35-1.44,2.63m0.12-3.35-1.44,2.63m0.12-3.35-1.44,2.63M56.24,12L54.8,14.62m0.12-3.35-1.44,2.63m0.12-3.35-1.44,2.63m0.12-3.35-1.44,2.63M51,9.1l-1.44,2.63m0.12-3.35L48.22,11m0.12-3.35L46.9,10.29M47,6.94L45.58,9.57M45.7,6.22L44.26,8.85M44.38,5.5L42.95,8.13m0.12-3.35L41.63,7.41m0.12-3.35L40.31,6.69m0.12-3.35L39,6m0.12-3.35L37.67,5.25M37.8,1.89L36.36,4.53m0.12-3.35L35,3.81m0.12-3.35L33.72,3.09m-1.32-2,1.44,2.63M31.09,1.83l1.44,2.63M29.77,2.55l1.44,2.63M28.45,3.27L29.89,5.9M27.13,4l1.44,2.63M25.82,4.71l1.44,2.63M24.5,5.43l1.44,2.63M23.18,6.15l1.44,2.63M21.86,6.87L23.3,9.5M20.55,7.59L22,10.22M19.23,8.31l1.44,2.63M17.91,9l1.44,2.63M16.59,9.75L18,12.39m-2.76-1.91,1.44,2.63M14,11.19l1.44,2.63m-2.76-1.91,1.44,2.63m-2.76-1.91,1.44,2.63M10,13.36L11.44,16M8.69,14.08l1.44,2.63M7.37,14.8l1.44,2.63M6.05,15.52l1.44,2.63M4.73,16.24l1.44,2.63M3.42,17l1.44,2.63M2.1,17.68l1.44,2.63M0.78,18.4L2.22,21M0,21.22H3m-3,1.5H3m-3,1.5H3m-3,1.5H3m-3,1.5H3m-3,1.5H3m-3,1.5H3m-3,1.5H3m-3,1.5H3m-3,1.5H3m-3,1.5H3m-3,1.5H3m-3,1.5H3m-3,1.5H3m-3,1.5H3m-3,1.5H3m-3,1.5H3m-3,1.5H3m-3,1.5H3m-3,1.5H3m-3,1.5H3M1.73,53.51l1.44-2.63M3,54.23L4.48,51.6M4.36,55L5.8,52.32M5.68,55.67L7.12,53M7,56.39l1.44-2.63M8.32,57.11l1.44-2.63M9.63,57.83l1.44-2.63M11,58.55l1.44-2.63m-0.12,3.35,1.44-2.63M13.59,60L15,57.36M14.9,60.72l1.44-2.63m-0.12,3.35,1.44-2.63m-0.12,3.35L19,59.53m-0.12,3.35,1.44-2.63M20.17,63.6L21.61,61m-0.12,3.35,1.44-2.63M22.81,65l1.44-2.63m-0.12,3.35,1.44-2.63m-0.12,3.35,1.44-2.63M26.76,67.2l1.44-2.63m-0.12,3.35,1.44-2.63M29.4,68.64L30.84,66m-0.12,3.35,1.44-2.63M32,70.08l1.44-2.63M33.35,70.8l1.44-2.63m1.32,2.25-1.44-2.63m2.76,1.91L36,67.07M38.74,69L37.3,66.35m2.76,1.91-1.44-2.63m2.76,1.91-1.44-2.63m2.76,1.91-1.44-2.63M44,66.1l-1.44-2.63m2.76,1.91-1.44-2.63m2.76,1.91L45.21,62M48,63.94L46.53,61.3m2.76,1.91-1.44-2.63M50.6,62.5l-1.44-2.63m2.76,1.91-1.44-2.63m2.76,1.91L51.8,58.42m2.76,1.91L53.12,57.7m2.76,1.91L54.43,57m2.76,1.91-1.44-2.63m2.76,1.91-1.44-2.63m2.76,1.91-1.44-2.63m2.76,1.91L59.7,54.1M62.46,56L61,53.38m2.76,1.91-1.44-2.63m2.76,1.91-1.44-2.63m2.76,1.91L65,51.22m2.76,1.91L66.29,50.5" transform="translate(0 -0.32)"/><text class="cls-2" transform="translate(13.8 30.32)"><tspan class="cls-3">T</tspan><tspan x="6.82" y="0">op 25</tspan></text><text class="cls-4" transform="translate(17.66 41.92)">L<tspan x="4.27" y="0">ender in</tspan></text><text class="cls-4" transform="translate(15.39 50.32)">the Mar<tspan x="26.8" y="0">k</tspan><tspan x="30.77" y="0">et</tspan></text><g class="cls-5"><polygon class="cls-6" points="62.8 48.9 34.38 64.43 5.96 48.9 5.96 21.85 34.38 6.33 62.8 21.85 62.8 48.9"/></g></svg>