<svg id="Layer_1" data-name="Layer 1" xmlns="http://www.w3.org/2000/svg" viewBox="0 0 210.99 219.51"><defs><style>.cls-1{fill:#e6e7e7;}.cls-2{fill:#3d6fb6;}.cls-3{fill:#464548;}.cls-4{fill:#51ad47;}</style></defs><title>dots-and-ring</title><path class="cls-1" d="M32.81,54.76a103.81,103.81,0,0,1,76.38-42,7.2,7.2,0,0,1,0-1.66A105.46,105.46,0,0,0,31.47,53.78a7.21,7.21,0,0,1,1.34,1" transform="translate(-10.86 -6.72)"/><path class="cls-1" d="M209.76,67.37a7.23,7.23,0,0,1-1.48.76,103.65,103.65,0,0,1,.13,96.22l0.47,0.2a7.3,7.3,0,0,1,1,.59,105.31,105.31,0,0,0-.11-97.76" transform="translate(-10.86 -6.72)"/><path class="cls-1" d="M123.5,12.77a103.84,103.84,0,0,1,77.34,43.3,7.16,7.16,0,0,1,1.34-1,105.49,105.49,0,0,0-78.65-44,7.16,7.16,0,0,1,0,1.66" transform="translate(-10.86 -6.72)"/><path class="cls-1" d="M201,176.46A103.82,103.82,0,0,1,122.55,220a7.23,7.23,0,0,1,.09,1.66,105.49,105.49,0,0,0,79.7-44.25,7.21,7.21,0,0,1-1.36-.94" transform="translate(-10.86 -6.72)"/><path class="cls-1" d="M23.32,162.43a103.68,103.68,0,0,1,1.84-95.7l-0.4-.17a7.25,7.25,0,0,1-1.05-.63,105.33,105.33,0,0,0-1.93,97.13,7.29,7.29,0,0,1,1.54-.63" transform="translate(-10.86 -6.72)"/><path class="cls-1" d="M108.33,219.88a103.88,103.88,0,0,1-78-45.39,7.2,7.2,0,0,1-1.31,1,105.55,105.55,0,0,0,79.16,46,7.18,7.18,0,0,1,.12-1.66" transform="translate(-10.86 -6.72)"/><path class="cls-2" d="M120.48,221.19a5.05,5.05,0,1,1-5.05-5,5.05,5.05,0,0,1,5.05,5" transform="translate(-10.86 -6.72)"/><path class="cls-3" d="M208.9,167.1a5.05,5.05,0,1,1-7.1.8,5.05,5.05,0,0,1,7.1-.8" transform="translate(-10.86 -6.72)"/><path class="cls-4" d="M204.62,56.44a5.05,5.05,0,1,1-3.8,6,5.05,5.05,0,0,1,3.8-6" transform="translate(-10.86 -6.72)"/><path class="cls-2" d="M111.8,9.59a5.05,5.05,0,1,1,2.36,6.74,5.05,5.05,0,0,1-2.36-6.74" transform="translate(-10.86 -6.72)"/><path class="cls-3" d="M26.77,65a5.05,5.05,0,1,1,6-3.8,5.05,5.05,0,0,1-6,3.8" transform="translate(-10.86 -6.72)"/><path class="cls-4" d="M28.43,173.32a5.05,5.05,0,1,1,.8-7.1,5.05,5.05,0,0,1-.8,7.1" transform="translate(-10.86 -6.72)"/></svg>