<svg xmlns="http://www.w3.org/2000/svg" xmlns:xlink="http://www.w3.org/1999/xlink" viewBox="0 0 344.09 344.09"><defs><style>.cls-1{fill:none;}.cls-2{isolation:isolate;}.cls-3{mix-blend-mode:multiply;}.cls-4{clip-path:url(#clip-path);}.cls-5{opacity:0;}.cls-6{fill:#fff;}.cls-7{opacity:0.02;}.cls-8{clip-path:url(#clip-path-4);}.cls-9{fill:#f8f7f7;}.cls-10{opacity:0.04;}.cls-11{clip-path:url(#clip-path-5);}.cls-12{fill:#f1f0f0;}.cls-13{opacity:0.06;}.cls-14{clip-path:url(#clip-path-6);}.cls-15{fill:#edebeb;}.cls-16{opacity:0.08;}.cls-17{clip-path:url(#clip-path-7);}.cls-18{fill:#e8e7e7;}.cls-19{opacity:0.1;}.cls-20{clip-path:url(#clip-path-8);}.cls-21{fill:#e4e2e2;}.cls-22{opacity:0.12;}.cls-23{clip-path:url(#clip-path-9);}.cls-24{fill:#e0dede;}.cls-25{opacity:0.14;}.cls-26{clip-path:url(#clip-path-10);}.cls-27{fill:#dcdada;}.cls-28{opacity:0.16;}.cls-29{clip-path:url(#clip-path-11);}.cls-30{fill:#d8d6d6;}.cls-31{opacity:0.18;}.cls-32{clip-path:url(#clip-path-12);}.cls-33{fill:#d4d2d2;}.cls-34{opacity:0.2;}.cls-35{clip-path:url(#clip-path-13);}.cls-36{fill:#d0cece;}.cls-37{opacity:0.22;}.cls-38{clip-path:url(#clip-path-14);}.cls-39{fill:#cdcacb;}.cls-40{opacity:0.24;}.cls-41{clip-path:url(#clip-path-15);}.cls-42{fill:#c9c6c7;}.cls-43{opacity:0.25;}.cls-44{clip-path:url(#clip-path-16);}.cls-45{fill:#c5c3c4;}.cls-46{opacity:0.27;}.cls-47{clip-path:url(#clip-path-17);}.cls-48{fill:#c2bfc0;}.cls-49{opacity:0.29;}.cls-50{clip-path:url(#clip-path-18);}.cls-51{fill:#bfbcbd;}.cls-52{opacity:0.31;}.cls-53{clip-path:url(#clip-path-19);}.cls-54{fill:#bbb8b9;}.cls-55{opacity:0.33;}.cls-56{clip-path:url(#clip-path-20);}.cls-57{fill:#b8b5b6;}.cls-58{opacity:0.35;}.cls-59{clip-path:url(#clip-path-21);}.cls-60{fill:#b4b1b2;}.cls-61{opacity:0.37;}.cls-62{clip-path:url(#clip-path-22);}.cls-63{fill:#b1aeaf;}.cls-64{opacity:0.39;}.cls-65{clip-path:url(#clip-path-23);}.cls-66{fill:#aeabac;}.cls-67{opacity:0.41;}.cls-68{clip-path:url(#clip-path-24);}.cls-69{fill:#aaa7a9;}.cls-70{opacity:0.43;}.cls-71{clip-path:url(#clip-path-25);}.cls-72{fill:#a7a4a6;}.cls-73{opacity:0.45;}.cls-74{clip-path:url(#clip-path-26);}.cls-75{fill:#a4a1a2;}.cls-76{opacity:0.47;}.cls-77{clip-path:url(#clip-path-27);}.cls-78{fill:#a19e9f;}.cls-79{opacity:0.49;}.cls-80{clip-path:url(#clip-path-28);}.cls-81{fill:#9e9b9c;}.cls-82{opacity:0.51;}.cls-83{clip-path:url(#clip-path-29);}.cls-84{fill:#9b9899;}.cls-85{opacity:0.53;}.cls-86{clip-path:url(#clip-path-30);}.cls-87{fill:#989596;}.cls-88{opacity:0.55;}.cls-89{clip-path:url(#clip-path-31);}.cls-90{fill:#959293;}.cls-91{opacity:0.57;}.cls-92{clip-path:url(#clip-path-32);}.cls-93{fill:#928f91;}.cls-94{opacity:0.59;}.cls-95{clip-path:url(#clip-path-33);}.cls-96{fill:#8f8c8e;}.cls-97{opacity:0.61;}.cls-98{clip-path:url(#clip-path-34);}.cls-99{fill:#8c898b;}.cls-100{opacity:0.63;}.cls-101{clip-path:url(#clip-path-35);}.cls-102{fill:#898688;}.cls-103{opacity:0.65;}.cls-104{clip-path:url(#clip-path-36);}.cls-105{fill:#868485;}.cls-106{opacity:0.67;}.cls-107{clip-path:url(#clip-path-37);}.cls-108{fill:#848183;}.cls-109{opacity:0.69;}.cls-110{clip-path:url(#clip-path-38);}.cls-111{fill:#817e80;}.cls-112{opacity:0.71;}.cls-113{clip-path:url(#clip-path-39);}.cls-114{fill:#7e7c7d;}.cls-115{opacity:0.73;}.cls-116{clip-path:url(#clip-path-40);}.cls-117{fill:#7c797b;}.cls-118{opacity:0.75;}.cls-119{clip-path:url(#clip-path-41);}.cls-120{fill:#797778;}.cls-121{opacity:0.76;}.cls-122{clip-path:url(#clip-path-42);}.cls-123{fill:#767476;}.cls-124{opacity:0.78;}.cls-125{clip-path:url(#clip-path-43);}.cls-126{fill:#747274;}.cls-127{opacity:0.8;}.cls-128{clip-path:url(#clip-path-44);}.cls-129{fill:#716f71;}.cls-130{opacity:0.82;}.cls-131{clip-path:url(#clip-path-45);}.cls-132{fill:#6f6d6f;}.cls-133{opacity:0.84;}.cls-134{clip-path:url(#clip-path-46);}.cls-135{fill:#6c6b6d;}.cls-136{opacity:0.86;}.cls-137{clip-path:url(#clip-path-47);}.cls-138{fill:#6a686a;}.cls-139{opacity:0.88;}.cls-140{clip-path:url(#clip-path-48);}.cls-141{fill:#676668;}.cls-142{opacity:0.9;}.cls-143{clip-path:url(#clip-path-49);}.cls-144{fill:#656466;}.cls-145{opacity:0.92;}.cls-146{clip-path:url(#clip-path-50);}.cls-147{fill:#636264;}.cls-148{opacity:0.94;}.cls-149{clip-path:url(#clip-path-51);}.cls-150{fill:#606062;}.cls-151{opacity:0.96;}.cls-152{clip-path:url(#clip-path-52);}.cls-153{fill:#5e5e60;}.cls-154{opacity:0.98;}.cls-155{clip-path:url(#clip-path-53);}.cls-156{fill:#5b5c5e;}.cls-157{clip-path:url(#clip-path-54);}.cls-158{fill:#595a5c;}.cls-159{clip-path:url(#clip-path-55);}.cls-160{fill:url(#linear-gradient);}.cls-161{clip-path:url(#clip-path-56);}.cls-162{fill:url(#linear-gradient-2);}.cls-163{clip-path:url(#clip-path-57);}.cls-164{fill:url(#linear-gradient-3);}.cls-165{clip-path:url(#clip-path-58);}.cls-166{fill:url(#linear-gradient-4);}.cls-167{clip-path:url(#clip-path-59);}.cls-168{fill:url(#linear-gradient-5);}.cls-169{clip-path:url(#clip-path-60);}.cls-170{fill:url(#linear-gradient-6);}.cls-171{clip-path:url(#clip-path-61);}.cls-172{fill:url(#linear-gradient-7);}.cls-173{clip-path:url(#clip-path-62);}.cls-174{fill:url(#linear-gradient-8);}.cls-175{clip-path:url(#clip-path-63);}.cls-176{fill:url(#linear-gradient-9);}.cls-177{clip-path:url(#clip-path-64);}.cls-178{fill:url(#linear-gradient-10);}.cls-179{clip-path:url(#clip-path-65);}.cls-180{fill:url(#linear-gradient-11);}.cls-181{clip-path:url(#clip-path-66);}.cls-182{fill:url(#linear-gradient-12);}.cls-183{clip-path:url(#clip-path-67);}.cls-184{fill:url(#linear-gradient-13);}.cls-185{clip-path:url(#clip-path-68);}.cls-186{fill:url(#linear-gradient-14);}.cls-187{clip-path:url(#clip-path-69);}.cls-188{fill:url(#linear-gradient-15);}.cls-189{clip-path:url(#clip-path-70);}.cls-190{fill:url(#linear-gradient-16);}.cls-191{clip-path:url(#clip-path-71);}.cls-192{fill:url(#linear-gradient-17);}.cls-193{clip-path:url(#clip-path-72);}.cls-194{fill:url(#linear-gradient-18);}.cls-195{clip-path:url(#clip-path-73);}.cls-196{fill:url(#linear-gradient-19);}.cls-197{clip-path:url(#clip-path-74);}.cls-198{fill:url(#linear-gradient-20);}.cls-199{clip-path:url(#clip-path-75);}.cls-200{fill:url(#linear-gradient-21);}</style><clipPath id="clip-path" transform="translate(55.7 54.18)"><rect class="cls-1" x="19.53" y="22.49" width="216.11" height="227.6"/></clipPath><clipPath id="clip-path-4" transform="translate(55.7 54.18)"><rect class="cls-1" x="19.85" y="22.7" width="214.99" height="226.39"/></clipPath><clipPath id="clip-path-5" transform="translate(55.7 54.18)"><rect class="cls-1" x="20.16" y="22.9" width="213.89" height="225.19"/></clipPath><clipPath id="clip-path-6" transform="translate(55.7 54.18)"><rect class="cls-1" x="20.47" y="23.11" width="212.8" height="224"/></clipPath><clipPath id="clip-path-7" transform="translate(55.7 54.18)"><rect class="cls-1" x="20.77" y="23.3" width="211.72" height="222.82"/></clipPath><clipPath id="clip-path-8" transform="translate(55.7 54.18)"><rect class="cls-1" x="21.06" y="23.49" width="210.66" height="221.65"/></clipPath><clipPath id="clip-path-9" transform="translate(55.7 54.18)"><rect class="cls-1" x="21.34" y="23.67" width="209.62" height="220.49"/></clipPath><clipPath id="clip-path-10" transform="translate(55.7 54.18)"><rect class="cls-1" x="21.62" y="23.85" width="208.59" height="219.34"/></clipPath><clipPath id="clip-path-11" transform="translate(55.7 54.18)"><rect class="cls-1" x="21.89" y="24.02" width="207.58" height="218.2"/></clipPath><clipPath id="clip-path-12" transform="translate(55.7 54.18)"><rect class="cls-1" x="22.14" y="24.19" width="206.59" height="217.08"/></clipPath><clipPath id="clip-path-13" transform="translate(55.7 54.18)"><rect class="cls-1" x="22.4" y="24.35" width="205.61" height="215.96"/></clipPath><clipPath id="clip-path-14" transform="translate(55.7 54.18)"><rect class="cls-1" x="22.64" y="24.5" width="204.65" height="214.86"/></clipPath><clipPath id="clip-path-15" transform="translate(55.7 54.18)"><rect class="cls-1" x="22.87" y="24.65" width="203.7" height="213.77"/></clipPath><clipPath id="clip-path-16" transform="translate(55.7 54.18)"><rect class="cls-1" x="23.1" y="24.8" width="202.78" height="212.69"/></clipPath><clipPath id="clip-path-17" transform="translate(55.7 54.18)"><rect class="cls-1" x="23.31" y="24.93" width="201.87" height="211.63"/></clipPath><clipPath id="clip-path-18" transform="translate(55.7 54.18)"><rect class="cls-1" x="23.52" y="25.06" width="200.98" height="210.58"/></clipPath><clipPath id="clip-path-19" transform="translate(55.7 54.18)"><rect class="cls-1" x="23.72" y="25.19" width="200.11" height="209.54"/></clipPath><clipPath id="clip-path-20" transform="translate(55.7 54.18)"><rect class="cls-1" x="23.91" y="25.3" width="199.25" height="208.51"/></clipPath><clipPath id="clip-path-21" transform="translate(55.7 54.18)"><rect class="cls-1" x="24.09" y="25.42" width="198.42" height="207.5"/></clipPath><clipPath id="clip-path-22" transform="translate(55.7 54.18)"><rect class="cls-1" x="24.26" y="25.52" width="197.6" height="206.49"/></clipPath><clipPath id="clip-path-23" transform="translate(55.7 54.18)"><rect class="cls-1" x="24.42" y="25.62" width="196.8" height="205.51"/></clipPath><clipPath id="clip-path-24" transform="translate(55.7 54.18)"><rect class="cls-1" x="24.57" y="25.71" width="196.03" height="204.53"/></clipPath><clipPath id="clip-path-25" transform="translate(55.7 54.18)"><rect class="cls-1" x="24.71" y="25.79" width="195.27" height="203.57"/></clipPath><clipPath id="clip-path-26" transform="translate(55.7 54.18)"><rect class="cls-1" x="24.84" y="25.87" width="194.53" height="202.63"/></clipPath><clipPath id="clip-path-27" transform="translate(55.7 54.18)"><rect class="cls-1" x="24.96" y="25.94" width="193.81" height="201.7"/></clipPath><clipPath id="clip-path-28" transform="translate(55.7 54.18)"><rect class="cls-1" x="25.07" y="26" width="193.11" height="200.78"/></clipPath><clipPath id="clip-path-29" transform="translate(55.7 54.18)"><rect class="cls-1" x="25.17" y="26.06" width="192.43" height="199.88"/></clipPath><clipPath id="clip-path-30" transform="translate(55.7 54.18)"><rect class="cls-1" x="25.26" y="26.1" width="191.77" height="198.99"/></clipPath><clipPath id="clip-path-31" transform="translate(55.7 54.18)"><rect class="cls-1" x="25.34" y="26.14" width="191.14" height="198.12"/></clipPath><clipPath id="clip-path-32" transform="translate(55.7 54.18)"><rect class="cls-1" x="25.41" y="26.18" width="190.52" height="197.26"/></clipPath><clipPath id="clip-path-33" transform="translate(55.7 54.18)"><rect class="cls-1" x="25.47" y="26.2" width="189.93" height="196.42"/></clipPath><clipPath id="clip-path-34" transform="translate(55.7 54.18)"><rect class="cls-1" x="25.52" y="26.22" width="189.35" height="195.59"/></clipPath><clipPath id="clip-path-35" transform="translate(55.7 54.18)"><rect class="cls-1" x="25.56" y="26.23" width="188.8" height="194.78"/></clipPath><clipPath id="clip-path-36" transform="translate(55.7 54.18)"><rect class="cls-1" x="25.58" y="26.23" width="188.27" height="193.99"/></clipPath><clipPath id="clip-path-37" transform="translate(55.7 54.18)"><rect class="cls-1" x="25.6" y="26.22" width="187.77" height="193.21"/></clipPath><clipPath id="clip-path-38" transform="translate(55.7 54.18)"><rect class="cls-1" x="25.6" y="26.21" width="187.28" height="192.45"/></clipPath><clipPath id="clip-path-39" transform="translate(55.7 54.18)"><rect class="cls-1" x="25.6" y="26.18" width="186.82" height="191.7"/></clipPath><clipPath id="clip-path-40" transform="translate(55.7 54.18)"><rect class="cls-1" x="25.58" y="26.15" width="186.38" height="190.98"/></clipPath><clipPath id="clip-path-41" transform="translate(55.7 54.18)"><rect class="cls-1" x="25.55" y="26.11" width="185.96" height="190.26"/></clipPath><clipPath id="clip-path-42" transform="translate(55.7 54.18)"><rect class="cls-1" x="25.51" y="26.06" width="185.56" height="189.57"/></clipPath><clipPath id="clip-path-43" transform="translate(55.7 54.18)"><rect class="cls-1" x="25.46" y="26" width="185.19" height="188.9"/></clipPath><clipPath id="clip-path-44" transform="translate(55.7 54.18)"><rect class="cls-1" x="25.39" y="25.93" width="184.84" height="188.24"/></clipPath><clipPath id="clip-path-45" transform="translate(55.7 54.18)"><rect class="cls-1" x="25.32" y="25.86" width="184.52" height="187.6"/></clipPath><clipPath id="clip-path-46" transform="translate(55.7 54.18)"><rect class="cls-1" x="25.23" y="25.77" width="184.22" height="186.97"/></clipPath><clipPath id="clip-path-47" transform="translate(55.7 54.18)"><rect class="cls-1" x="25.13" y="25.68" width="183.94" height="186.37"/></clipPath><clipPath id="clip-path-48" transform="translate(55.7 54.18)"><rect class="cls-1" x="25.02" y="25.58" width="183.69" height="185.78"/></clipPath><clipPath id="clip-path-49" transform="translate(55.7 54.18)"><rect class="cls-1" x="24.89" y="25.46" width="183.46" height="185.22"/></clipPath><clipPath id="clip-path-50" transform="translate(55.7 54.18)"><rect class="cls-1" x="24.76" y="25.34" width="183.25" height="184.67"/></clipPath><clipPath id="clip-path-51" transform="translate(55.7 54.18)"><rect class="cls-1" x="24.61" y="25.21" width="183.07" height="184.14"/></clipPath><clipPath id="clip-path-52" transform="translate(55.7 54.18)"><rect class="cls-1" x="24.45" y="25.07" width="182.91" height="183.63"/></clipPath><clipPath id="clip-path-53" transform="translate(55.7 54.18)"><rect class="cls-1" x="24.28" y="24.92" width="182.78" height="183.14"/></clipPath><clipPath id="clip-path-54" transform="translate(55.7 54.18)"><rect class="cls-1" x="24.09" y="24.76" width="182.67" height="182.67"/></clipPath><clipPath id="clip-path-55" transform="translate(55.7 54.18)"><path class="cls-1" d="M30.33,117.88a86,86,0,1,1,86,86,86,86,0,0,1-86-86"/></clipPath><linearGradient id="linear-gradient" y1="250.09" x2="1" y2="250.09" gradientTransform="matrix(0, 171.49, 171.49, 0, -42771.19, 31.31)" gradientUnits="userSpaceOnUse"><stop offset="0" stop-color="#a1a6a8"/><stop offset="0.58" stop-color="#dadcdd"/><stop offset="1" stop-color="#fff"/></linearGradient><clipPath id="clip-path-56" transform="translate(55.7 54.18)"><path class="cls-1" d="M31,118.21a85.51,85.51,0,1,1,85.52,85.51A85.51,85.51,0,0,1,31,118.21"/></clipPath><linearGradient id="linear-gradient-2" y1="250.09" x2="1" y2="250.09" gradientTransform="matrix(0, 170.47, 170.47, 0, -42517.43, 32.15)" gradientUnits="userSpaceOnUse"><stop offset="0" stop-color="#a5a9ab"/><stop offset="0.57" stop-color="#dadcdd"/><stop offset="1" stop-color="#fff"/></linearGradient><clipPath id="clip-path-57" transform="translate(55.7 54.18)"><path class="cls-1" d="M31.77,118.53a85,85,0,1,1,85,85,85,85,0,0,1-85-85"/></clipPath><linearGradient id="linear-gradient-3" y1="250.09" x2="1" y2="250.09" gradientTransform="matrix(0, 169.46, 169.46, 0, -42263.67, 33)" gradientUnits="userSpaceOnUse"><stop offset="0" stop-color="#a9adaf"/><stop offset="0.55" stop-color="#dadcdd"/><stop offset="1" stop-color="#fff"/></linearGradient><clipPath id="clip-path-58" transform="translate(55.7 54.18)"><path class="cls-1" d="M32.49,118.86A84.5,84.5,0,1,1,117,203.36a84.5,84.5,0,0,1-84.5-84.49"/></clipPath><linearGradient id="linear-gradient-4" y1="250.09" x2="1" y2="250.09" gradientTransform="matrix(0, 168.45, 168.45, 0, -42009.91, 33.84)" gradientUnits="userSpaceOnUse"><stop offset="0" stop-color="#adb0b2"/><stop offset="0.53" stop-color="#dadcdd"/><stop offset="1" stop-color="#fff"/></linearGradient><clipPath id="clip-path-59" transform="translate(55.7 54.18)"><path class="cls-1" d="M33.21,119.19a84,84,0,1,1,84,84,84,84,0,0,1-84-84"/></clipPath><linearGradient id="linear-gradient-5" y1="250.09" x2="1" y2="250.09" gradientTransform="matrix(0, 167.43, 167.43, 0, -41756.15, 34.68)" gradientUnits="userSpaceOnUse"><stop offset="0" stop-color="#b1b4b6"/><stop offset="0.5" stop-color="#dadcdd"/><stop offset="1" stop-color="#fff"/></linearGradient><clipPath id="clip-path-60" transform="translate(55.7 54.18)"><path class="cls-1" d="M33.93,119.52A83.48,83.48,0,1,1,117.42,203a83.48,83.48,0,0,1-83.48-83.48"/></clipPath><linearGradient id="linear-gradient-6" y1="250.09" x2="1" y2="250.09" gradientTransform="matrix(0, 166.42, 166.42, 0, -41502.4, 35.52)" gradientUnits="userSpaceOnUse"><stop offset="0" stop-color="#b5b7b9"/><stop offset="0.48" stop-color="#dbdcdd"/><stop offset="1" stop-color="#fff"/></linearGradient><clipPath id="clip-path-61" transform="translate(55.7 54.18)"><path class="cls-1" d="M34.65,119.85a83,83,0,1,1,83,83,83,83,0,0,1-83-83"/></clipPath><linearGradient id="linear-gradient-7" y1="250.09" x2="1" y2="250.09" gradientTransform="matrix(0, 165.4, 165.4, 0, -41248.64, 36.36)" gradientUnits="userSpaceOnUse"><stop offset="0" stop-color="#b9bbbd"/><stop offset="0.45" stop-color="#dbdcdd"/><stop offset="1" stop-color="#fff"/></linearGradient><clipPath id="clip-path-62" transform="translate(55.7 54.18)"><path class="cls-1" d="M35.37,120.18a82.46,82.46,0,1,1,82.47,82.46,82.47,82.47,0,0,1-82.47-82.46"/></clipPath><linearGradient id="linear-gradient-8" y1="250.09" x2="1" y2="250.09" gradientTransform="matrix(0, 164.39, 164.39, 0, -40994.88, 37.2)" gradientUnits="userSpaceOnUse"><stop offset="0" stop-color="#bdbfc0"/><stop offset="0.42" stop-color="#dbdcdc"/><stop offset="1" stop-color="#fff"/></linearGradient><clipPath id="clip-path-63" transform="translate(55.7 54.18)"><path class="cls-1" d="M36.09,120.51a82,82,0,1,1,82,82,82,82,0,0,1-82-82"/></clipPath><linearGradient id="linear-gradient-9" y1="250.09" x2="1" y2="250.09" gradientTransform="matrix(0, 163.38, 163.38, 0, -40741.12, 38.03)" gradientUnits="userSpaceOnUse"><stop offset="0" stop-color="#c1c3c4"/><stop offset="0.39" stop-color="#dbdcdc"/><stop offset="1" stop-color="#fff"/></linearGradient><clipPath id="clip-path-64" transform="translate(55.7 54.18)"><path class="cls-1" d="M36.81,120.83a81.45,81.45,0,1,1,81.45,81.44,81.45,81.45,0,0,1-81.45-81.44"/></clipPath><linearGradient id="linear-gradient-10" y1="250.09" x2="1" y2="250.09" gradientTransform="matrix(0, 162.36, 162.36, 0, -40487.36, 38.88)" gradientUnits="userSpaceOnUse"><stop offset="0" stop-color="#c6c7c8"/><stop offset="0.34" stop-color="#dbdbdc"/><stop offset="1" stop-color="#fff"/></linearGradient><clipPath id="clip-path-65" transform="translate(55.7 54.18)"><path class="cls-1" d="M37.53,121.16a80.94,80.94,0,1,1,80.94,80.93,80.95,80.95,0,0,1-80.94-80.93"/></clipPath><linearGradient id="linear-gradient-11" y1="250.09" x2="1" y2="250.09" gradientTransform="matrix(0, 161.35, 161.35, 0, -40233.6, 39.72)" gradientUnits="userSpaceOnUse"><stop offset="0" stop-color="#cacbcc"/><stop offset="0.29" stop-color="#dbdbdc"/><stop offset="1" stop-color="#fff"/></linearGradient><clipPath id="clip-path-66" transform="translate(55.7 54.18)"><path class="cls-1" d="M38.26,121.49a80.43,80.43,0,1,1,80.44,80.43,80.44,80.44,0,0,1-80.44-80.43"/></clipPath><linearGradient id="linear-gradient-12" y1="250.09" x2="1" y2="250.09" gradientTransform="matrix(0, 160.34, 160.34, 0, -39979.84, 40.56)" gradientUnits="userSpaceOnUse"><stop offset="0" stop-color="#cecfcf"/><stop offset="0.24" stop-color="#dbdbdb"/><stop offset="1" stop-color="#fff"/></linearGradient><clipPath id="clip-path-67" transform="translate(55.7 54.18)"><path class="cls-1" d="M39,121.82a79.92,79.92,0,1,1,79.93,79.92A79.93,79.93,0,0,1,39,121.82"/></clipPath><linearGradient id="linear-gradient-13" y1="250.09" x2="1" y2="250.09" gradientTransform="matrix(0, 159.32, 159.32, 0, -39726.08, 41.4)" gradientUnits="userSpaceOnUse"><stop offset="0" stop-color="#d2d3d3"/><stop offset="0.18" stop-color="#dbdbdb"/><stop offset="1" stop-color="#fff"/></linearGradient><clipPath id="clip-path-68" transform="translate(55.7 54.18)"><path class="cls-1" d="M39.7,122.15a79.41,79.41,0,1,1,79.42,79.41A79.42,79.42,0,0,1,39.7,122.15"/></clipPath><linearGradient id="linear-gradient-14" y1="250.09" x2="1" y2="250.09" gradientTransform="matrix(0, 158.31, 158.31, 0, -39472.32, 42.24)" gradientUnits="userSpaceOnUse"><stop offset="0" stop-color="#d6d7d7"/><stop offset="0.1" stop-color="#dbdbdb"/><stop offset="1" stop-color="#fff"/></linearGradient><clipPath id="clip-path-69" transform="translate(55.7 54.18)"><path class="cls-1" d="M40.42,122.48a78.9,78.9,0,1,1,78.91,78.9,78.92,78.92,0,0,1-78.91-78.9"/></clipPath><linearGradient id="linear-gradient-15" y1="250.09" x2="1" y2="250.09" gradientTransform="matrix(0, 157.29, 157.29, 0, -39218.56, 43.08)" gradientUnits="userSpaceOnUse"><stop offset="0" stop-color="#dbdbdb"/><stop offset="1" stop-color="#fff"/></linearGradient><clipPath id="clip-path-70" transform="translate(55.7 54.18)"><path class="cls-1" d="M41.14,122.81a78.4,78.4,0,1,1,78.4,78.39,78.41,78.41,0,0,1-78.4-78.39"/></clipPath><linearGradient id="linear-gradient-16" y1="250.09" x2="1" y2="250.09" gradientTransform="matrix(0, 156.28, 156.28, 0, -38964.8, 43.92)" gradientUnits="userSpaceOnUse"><stop offset="0" stop-color="#dfdfe0"/><stop offset="1" stop-color="#fff"/></linearGradient><clipPath id="clip-path-71" transform="translate(55.7 54.18)"><path class="cls-1" d="M41.86,123.14A77.89,77.89,0,1,1,119.75,201a77.9,77.9,0,0,1-77.89-77.89"/></clipPath><linearGradient id="linear-gradient-17" y1="250.09" x2="1" y2="250.09" gradientTransform="matrix(0, 155.27, 155.27, 0, -38711.04, 44.76)" gradientUnits="userSpaceOnUse"><stop offset="0" stop-color="#e4e4e4"/><stop offset="1" stop-color="#fff"/></linearGradient><clipPath id="clip-path-72" transform="translate(55.7 54.18)"><path class="cls-1" d="M42.58,123.46A77.38,77.38,0,1,1,120,200.84a77.39,77.39,0,0,1-77.39-77.38"/></clipPath><linearGradient id="linear-gradient-18" y1="250.09" x2="1" y2="250.09" gradientTransform="matrix(0, 154.25, 154.25, 0, -38457.28, 45.6)" gradientUnits="userSpaceOnUse"><stop offset="0" stop-color="#e9e8e8"/><stop offset="1" stop-color="#fff"/></linearGradient><clipPath id="clip-path-73" transform="translate(55.7 54.18)"><path class="cls-1" d="M43.3,123.79a76.87,76.87,0,1,1,76.88,76.87A76.89,76.89,0,0,1,43.3,123.79"/></clipPath><linearGradient id="linear-gradient-19" y1="250.09" x2="1" y2="250.09" gradientTransform="matrix(0, 153.24, 153.24, 0, -38203.52, 46.45)" gradientUnits="userSpaceOnUse"><stop offset="0" stop-color="#ededed"/><stop offset="1" stop-color="#fff"/></linearGradient><clipPath id="clip-path-74" transform="translate(55.7 54.18)"><path class="cls-1" d="M44,124.12a76.36,76.36,0,1,1,76.37,76.36A76.38,76.38,0,0,1,44,124.12"/></clipPath><linearGradient id="linear-gradient-20" y1="250.09" x2="1" y2="250.09" gradientTransform="matrix(0, 152.23, 152.23, 0, -37949.76, 47.28)" gradientUnits="userSpaceOnUse"><stop offset="0" stop-color="#f2f2f1"/><stop offset="1" stop-color="#fff"/></linearGradient><clipPath id="clip-path-75" transform="translate(55.7 54.18)"><path class="cls-1" d="M44.74,124.45A75.85,75.85,0,1,1,120.6,200.3a75.87,75.87,0,0,1-75.86-75.85"/></clipPath><linearGradient id="linear-gradient-21" y1="250.09" x2="1" y2="250.09" gradientTransform="matrix(0, 151.21, 151.21, 0, -37696, 48.12)" gradientUnits="userSpaceOnUse"><stop offset="0" stop-color="#f8f7f7"/><stop offset="1" stop-color="#fff"/></linearGradient></defs><title>ring-shadow</title><g class="cls-2"><g id="Layer_1" data-name="Layer 1"><g class="cls-3"><g class="cls-4"><g class="cls-4"><g class="cls-5"><g class="cls-4"><path class="cls-6" d="M219.85,85.31c31,56.18,14.89,124.54-36.07,152.69S66.34,243.45,35.3,187.27,20.43,62.74,71.39,34.58s117.43-5.45,148.46,50.73" transform="translate(55.7 54.18)"/></g></g><g class="cls-7"><g class="cls-8"><path class="cls-9" d="M219.6,85.87c30.46,56.06,13.84,123.91-37.11,151.54S65.54,242,35.09,185.93,21.25,62,72.21,34.38,189.14,29.8,219.6,85.87" transform="translate(55.7 54.18)"/></g></g><g class="cls-10"><g class="cls-11"><path class="cls-12" d="M219.34,86.42c29.88,56,12.8,123.28-38.14,150.38S64.74,240.53,34.87,184.58,22.08,61.3,73,34.19s116.45-3.73,146.32,52.23" transform="translate(55.7 54.18)"/></g></g><g class="cls-13"><g class="cls-14"><path class="cls-15" d="M219.08,87c29.29,55.84,11.75,122.65-39.18,149.22s-116,2.87-145.26-53S22.91,60.58,73.84,34s116-2.87,145.24,53" transform="translate(55.7 54.18)"/></g></g><g class="cls-16"><g class="cls-17"><path class="cls-18" d="M218.82,87.53c28.71,55.72,10.71,122-40.21,148.07s-115.47,2-144.18-53.72S23.73,59.86,74.65,33.81s115.46-2,144.17,53.72" transform="translate(55.7 54.18)"/></g></g><g class="cls-19"><g class="cls-20"><path class="cls-21" d="M218.57,88.09C246.7,143.7,228.23,209.48,177.32,235s-115,1.15-143.11-54.46S24.56,59.15,75.47,33.62s115-1.15,143.1,54.47" transform="translate(55.7 54.18)"/></g></g><g class="cls-22"><g class="cls-23"><path class="cls-24" d="M218.31,88.64c27.55,55.5,8.62,120.76-42.28,145.76s-114.49.29-142-55.21S25.39,58.43,76.29,33.42s114.48-.29,142,55.22" transform="translate(55.7 54.18)"/></g></g><g class="cls-25"><g class="cls-26"><path class="cls-27" d="M218.05,89.2c27,55.39,7.57,120.13-43.32,144.6s-114-.57-141-56S26.21,57.71,77.1,33.23s114,0.58,141,56" transform="translate(55.7 54.18)"/></g></g><g class="cls-28"><g class="cls-29"><path class="cls-30" d="M217.8,89.75c26.38,55.28,6.52,119.5-44.35,143.44S59.94,231.77,33.55,176.49,27,57,77.92,33s113.5,1.44,139.88,56.71" transform="translate(55.7 54.18)"/></g></g><g class="cls-31"><g class="cls-32"><path class="cls-33" d="M217.54,90.31c25.8,55.16,5.48,118.87-45.39,142.29s-113-2.29-138.82-57.46S27.87,56.28,78.73,32.85s113,2.3,138.8,57.46" transform="translate(55.7 54.18)"/></g></g><g class="cls-34"><g class="cls-35"><path class="cls-36" d="M217.28,90.87c25.22,55.05,4.43,118.24-46.42,141.13s-112.53-3.15-137.75-58.2S28.69,55.56,79.55,32.66s112.52,3.16,137.73,58.21" transform="translate(55.7 54.18)"/></g></g><g class="cls-37"><g class="cls-38"><path class="cls-39" d="M217,91.42c24.64,54.94,3.39,117.61-47.46,140s-112-4-136.68-59-3.38-117.61,47.47-140,112,4,136.66,59" transform="translate(55.7 54.18)"/></g></g><g class="cls-40"><g class="cls-41"><path class="cls-42" d="M216.77,92c24.06,54.83,2.34,117-48.49,138.82s-111.54-4.87-135.6-59.7-2.33-117,48.51-138.83S192.72,37.15,216.77,92" transform="translate(55.7 54.18)"/></g></g><g class="cls-43"><g class="cls-44"><path class="cls-45" d="M216.51,92.53C240,147.25,217.81,208.89,167,230.2S55.93,224.46,32.46,169.75,31.17,53.41,82,32.08s111,5.74,134.51,60.45" transform="translate(55.7 54.18)"/></g></g><g class="cls-46"><g class="cls-47"><path class="cls-48" d="M216.25,93.09c22.89,54.6.25,115.72-50.56,136.51S55.13,223,32.24,168.4,32,52.69,82.81,31.89s110.55,6.6,133.44,61.2" transform="translate(55.7 54.18)"/></g></g><g class="cls-49"><g class="cls-50"><path class="cls-51" d="M216,93.64c22.31,54.49-.8,115.09-51.59,135.35S54.33,221.54,32,167.06,32.82,52,83.63,31.7,193.69,39.16,216,93.64" transform="translate(55.7 54.18)"/></g></g><g class="cls-52"><g class="cls-53"><path class="cls-54" d="M215.74,94.2c21.73,54.37-1.84,114.46-52.63,134.2S53.53,220.08,31.8,165.71,33.65,51.25,84.44,31.51,194,39.83,215.74,94.2" transform="translate(55.7 54.18)"/></g></g><g class="cls-55"><g class="cls-56"><path class="cls-57" d="M215.48,94.76c21.15,54.26-2.89,113.83-53.66,133S52.73,218.62,31.58,164.36s2.9-113.82,53.68-133,109.08,9.18,130.22,63.44" transform="translate(55.7 54.18)"/></g></g><g class="cls-58"><g class="cls-59"><path class="cls-60" d="M215.22,95.31c20.56,54.15-3.93,113.2-54.7,131.89S51.92,217.16,31.36,163,35.3,49.82,86.08,31.12s108.59,10,129.15,64.19" transform="translate(55.7 54.18)"/></g></g><g class="cls-61"><g class="cls-62"><path class="cls-63" d="M215,95.87c20,54-5,112.57-55.73,130.73S51.12,215.7,31.14,161.66s5-112.56,55.75-130.74S195,41.83,215,95.87" transform="translate(55.7 54.18)"/></g></g><g class="cls-64"><g class="cls-65"><path class="cls-66" d="M214.71,96.42c19.4,53.93-6,111.94-56.77,129.57s-107.62-11.76-127-65.68S37,48.38,87.71,30.74s107.61,11.76,127,65.68" transform="translate(55.7 54.18)"/></g></g><g class="cls-67"><g class="cls-68"><path class="cls-69" d="M214.45,97c18.82,53.81-7.07,111.31-57.8,128.42S49.52,212.78,30.7,159,37.78,47.66,88.52,30.55,195.64,43.17,214.45,97" transform="translate(55.7 54.18)"/></g></g><g class="cls-70"><g class="cls-71"><path class="cls-72" d="M214.19,97.53c18.24,53.7-8.11,110.68-58.84,127.26S48.72,211.32,30.48,157.62,38.61,46.95,89.34,30.35,196,43.84,214.19,97.53" transform="translate(55.7 54.18)"/></g></g><g class="cls-73"><g class="cls-74"><path class="cls-75" d="M213.94,98.09c17.65,53.59-9.16,110.05-59.87,126.11S47.92,209.86,30.26,156.27s9.17-110,59.89-126.11S196.29,44.51,213.94,98.09" transform="translate(55.7 54.18)"/></g></g><g class="cls-76"><g class="cls-77"><path class="cls-78" d="M213.68,98.65c17.07,53.47-10.21,109.42-60.91,125S47.12,208.4,30,154.92,40.26,45.51,91,30s105.64,15.2,122.71,68.68" transform="translate(55.7 54.18)"/></g></g><g class="cls-79"><g class="cls-80"><path class="cls-81" d="M213.42,99.2C229.91,152.56,202.17,208,151.48,223S46.32,206.94,29.83,153.58s11.26-108.78,62-123.8S196.94,45.84,213.42,99.2" transform="translate(55.7 54.18)"/></g></g><g class="cls-82"><g class="cls-83"><path class="cls-84" d="M213.16,99.76c15.91,53.25-12.3,108.16-63,122.64S45.52,205.48,29.61,152.23,41.92,44.08,92.6,29.59,197.26,46.51,213.16,99.76" transform="translate(55.7 54.18)"/></g></g><g class="cls-85"><g class="cls-86"><path class="cls-87" d="M212.91,100.31c15.33,53.14-13.34,107.53-64,121.48S44.72,204,29.39,150.88,42.74,43.36,93.42,29.4s104.17,17.79,119.49,70.92" transform="translate(55.7 54.18)"/></g></g><g class="cls-88"><g class="cls-89"><path class="cls-90" d="M212.65,100.87c14.75,53-14.39,106.9-65,120.33S43.91,202.56,29.17,149.53,43.57,42.64,94.24,29.2s103.68,18.65,118.41,71.67" transform="translate(55.7 54.18)"/></g></g><g class="cls-91"><g class="cls-92"><path class="cls-93" d="M212.39,101.42C226.56,154.34,197,207.7,146.31,220.6S43.11,201.1,28.95,148.19,44.4,41.92,95.05,29s103.19,19.51,117.34,72.41" transform="translate(55.7 54.18)"/></g></g><g class="cls-94"><g class="cls-95"><path class="cls-96" d="M212.14,102c13.58,52.8-16.48,105.64-67.12,118S42.31,199.64,28.73,146.84s16.49-105.63,67.14-118S198.56,49.19,212.14,102" transform="translate(55.7 54.18)"/></g></g><g class="cls-97"><g class="cls-98"><path class="cls-99" d="M211.88,102.54c13,52.69-17.53,105-68.15,116.86S41.51,198.18,28.51,145.49,46,40.49,96.68,28.63s102.2,21.23,115.19,73.91" transform="translate(55.7 54.18)"/></g></g><g class="cls-100"><g class="cls-101"><path class="cls-102" d="M211.62,103.09C224,155.67,193.05,207.47,142.44,218.8S40.71,196.72,28.29,144.14,46.88,39.77,97.5,28.44s101.71,22.09,114.12,74.66" transform="translate(55.7 54.18)"/></g></g><g class="cls-103"><g class="cls-104"><path class="cls-105" d="M211.36,103.65c11.84,52.46-19.62,103.75-70.22,114.55S39.91,195.26,28.07,142.8,47.7,39.05,98.32,28.24s101.22,22.95,113,75.4" transform="translate(55.7 54.18)"/></g></g><g class="cls-106"><g class="cls-107"><path class="cls-108" d="M211.11,104.2c11.25,52.35-20.66,103.12-71.26,113.39s-100.74-23.8-112-76.15S48.53,38.34,99.13,28.05s100.73,23.81,112,76.15" transform="translate(55.7 54.18)"/></g></g><g class="cls-109"><g class="cls-110"><path class="cls-111" d="M210.85,104.76C221.52,157,189.14,207.25,138.56,217S38.31,192.34,27.63,140.1,49.36,37.62,99.95,27.86s100.24,24.67,110.9,76.9" transform="translate(55.7 54.18)"/></g></g><g class="cls-112"><g class="cls-113"><path class="cls-114" d="M210.59,105.31c10.09,52.13-22.75,101.86-73.32,111.08S37.51,190.88,27.41,138.75,50.18,36.9,100.76,27.67s99.75,25.53,109.83,77.65" transform="translate(55.7 54.18)"/></g></g><g class="cls-115"><g class="cls-116"><path class="cls-117" d="M210.34,105.87c9.51,52-23.8,101.23-74.36,109.93S36.71,189.42,27.2,137.4,51,36.18,101.58,27.48s99.26,26.39,108.75,78.39" transform="translate(55.7 54.18)"/></g></g><g class="cls-118"><g class="cls-119"><path class="cls-120" d="M210.08,106.43C219,158.33,185.23,207,134.68,215.2S35.9,188,27,136.06,51.83,35.47,102.4,27.28s98.77,27.25,107.68,79.14" transform="translate(55.7 54.18)"/></g></g><g class="cls-121"><g class="cls-122"><path class="cls-123" d="M209.82,107c8.34,51.79-25.89,100-76.43,107.61S35.1,186.5,26.76,134.71s25.9-100,76.45-107.62S201.49,55.2,209.82,107" transform="translate(55.7 54.18)"/></g></g><g class="cls-124"><g class="cls-125"><path class="cls-126" d="M209.56,107.54c7.76,51.68-26.94,99.34-77.46,106.46S34.3,185,26.54,133.36,53.49,34,104,26.9s97.79,29,105.54,80.64" transform="translate(55.7 54.18)"/></g></g><g class="cls-127"><g class="cls-128"><path class="cls-129" d="M209.31,108.09c7.18,51.56-28,98.71-78.5,105.3S33.5,183.58,26.32,132s28-98.7,78.53-105.31,97.29,29.83,104.46,81.38" transform="translate(55.7 54.18)"/></g></g><g class="cls-130"><g class="cls-131"><path class="cls-132" d="M209,108.65c6.6,51.45-29,98.08-79.53,104.15S32.7,182.12,26.1,130.66s29-98.07,79.56-104.15S202.46,57.21,209,108.65" transform="translate(55.7 54.18)"/></g></g><g class="cls-133"><g class="cls-134"><path class="cls-135" d="M208.79,109.2c6,51.34-30.07,97.45-80.57,103S31.9,180.66,25.88,129.32,56,31.88,106.48,26.32s96.31,31.55,102.32,82.88" transform="translate(55.7 54.18)"/></g></g><g class="cls-136"><g class="cls-137"><path class="cls-138" d="M208.53,109.76C214,161,177.42,206.58,126.93,211.6S31.1,179.19,25.66,128,56.79,31.16,107.29,26.13s95.82,32.41,101.24,83.63" transform="translate(55.7 54.18)"/></g></g><g class="cls-139"><g class="cls-140"><path class="cls-141" d="M208.28,110.32c4.85,51.11-32.16,96.19-82.64,100.68S30.3,177.73,25.44,126.62,57.62,30.44,108.11,25.94s95.33,33.27,100.17,84.38" transform="translate(55.7 54.18)"/></g></g><g class="cls-142"><g class="cls-143"><path class="cls-144" d="M208,110.87c4.27,51-33.21,95.56-83.67,99.52s-94.85-34.12-99.12-85.12,33.22-95.55,83.7-99.53,94.84,34.14,99.1,85.12" transform="translate(55.7 54.18)"/></g></g><g class="cls-145"><g class="cls-146"><path class="cls-147" d="M207.76,111.43c3.69,50.89-34.26,94.93-84.71,98.37s-94.36-35-98.05-85.87S59.27,29,109.74,25.56s94.35,35,98,85.87" transform="translate(55.7 54.18)"/></g></g><g class="cls-148"><g class="cls-149"><path class="cls-150" d="M207.51,112c3.11,50.78-35.3,94.3-85.74,97.21s-93.87-35.84-97-86.62S60.1,28.29,110.56,25.36,204.41,61.22,207.51,112" transform="translate(55.7 54.18)"/></g></g><g class="cls-151"><g class="cls-152"><path class="cls-153" d="M207.25,112.54c2.52,50.66-36.35,93.67-86.78,96.06s-93.38-36.7-95.91-87.36,36.36-93.66,86.81-96.06,93.36,36.72,95.88,87.37" transform="translate(55.7 54.18)"/></g></g><g class="cls-154"><g class="cls-155"><path class="cls-156" d="M207,113.09A91.39,91.39,0,1,1,112.19,25,91.34,91.34,0,0,1,207,113.09" transform="translate(55.7 54.18)"/></g></g><g class="cls-157"><path class="cls-158" d="M206.73,113.65A91.34,91.34,0,1,1,113,24.79a91.31,91.31,0,0,1,93.73,88.86" transform="translate(55.7 54.18)"/></g></g><g class="cls-159"><rect class="cls-160" x="-5.3" y="-3.79" width="243.31" height="243.31" transform="translate(6.43 170.97) rotate(-45)"/></g><g class="cls-161"><rect class="cls-162" x="-4.37" y="-2.74" width="241.87" height="241.87" transform="translate(6.26 171.22) rotate(-45)"/></g><g class="cls-163"><rect class="cls-164" x="-3.44" y="-1.69" width="240.44" height="240.44" transform="translate(6.09 171.47) rotate(-45)"/></g><g class="cls-165"><rect class="cls-166" x="-2.51" y="-0.64" width="239" height="239" transform="translate(5.92 171.71) rotate(-45)"/></g><g class="cls-167"><rect class="cls-168" x="-1.58" y="0.4" width="237.56" height="237.56" transform="translate(5.75 171.96) rotate(-45)"/></g><g class="cls-169"><rect class="cls-170" x="-0.65" y="1.45" width="236.12" height="236.12" transform="translate(5.58 172.2) rotate(-45)"/></g><g class="cls-171"><rect class="cls-172" x="0.28" y="2.5" width="234.68" height="234.68" transform="translate(5.41 172.45) rotate(-45)"/></g><g class="cls-173"><rect class="cls-174" x="1.21" y="3.55" width="233.25" height="233.25" transform="translate(5.24 172.7) rotate(-45)"/></g><g class="cls-175"><rect class="cls-176" x="2.15" y="4.6" width="231.81" height="231.81" transform="translate(5.07 172.94) rotate(-45)"/></g><g class="cls-177"><rect class="cls-178" x="3.08" y="5.64" width="230.37" height="230.37" transform="translate(4.9 173.19) rotate(-45)"/></g><g class="cls-179"><rect class="cls-180" x="4.01" y="6.69" width="228.93" height="228.93" transform="translate(4.72 173.44) rotate(-45)"/></g><g class="cls-181"><rect class="cls-182" x="4.94" y="7.74" width="227.49" height="227.49" transform="translate(4.55 173.68) rotate(-45)"/></g><g class="cls-183"><rect class="cls-184" x="5.87" y="8.79" width="226.06" height="226.06" transform="translate(4.38 173.93) rotate(-45)"/></g><g class="cls-185"><rect class="cls-186" x="6.8" y="9.83" width="224.62" height="224.62" transform="translate(4.21 174.17) rotate(-45)"/></g><g class="cls-187"><rect class="cls-188" x="7.73" y="10.88" width="223.18" height="223.18" transform="translate(4.04 174.42) rotate(-45)"/></g><g class="cls-189"><rect class="cls-190" x="8.66" y="11.93" width="221.74" height="221.74" transform="translate(3.87 174.67) rotate(-45)"/></g><g class="cls-191"><rect class="cls-192" x="9.59" y="12.98" width="220.3" height="220.3" transform="translate(3.7 174.91) rotate(-45)"/></g><g class="cls-193"><rect class="cls-194" x="10.53" y="14.02" width="218.87" height="218.87" transform="translate(3.53 175.16) rotate(-45)"/></g><g class="cls-195"><rect class="cls-196" x="11.46" y="15.07" width="217.43" height="217.43" transform="translate(3.36 175.41) rotate(-45)"/></g><g class="cls-197"><rect class="cls-198" x="12.39" y="16.12" width="215.99" height="215.99" transform="translate(3.19 175.65) rotate(-45)"/></g><g class="cls-199"><rect class="cls-200" x="13.32" y="17.17" width="214.55" height="214.55" transform="translate(3.02 175.9) rotate(-45)"/></g><path class="cls-6" d="M45.46,124.78a75.34,75.34,0,1,1,75.35,75.34,75.36,75.36,0,0,1-75.35-75.34" transform="translate(55.7 54.18)"/></g></g></g></g></svg>