<?xml version="1.0" encoding="utf-8"?>
<!-- Generator: Adobe Illustrator 19.2.1, SVG Export Plug-In . SVG Version: 6.00 Build 0)  -->
<svg version="1.1" id="Layer_1" xmlns="http://www.w3.org/2000/svg" xmlns:xlink="http://www.w3.org/1999/xlink" x="0px" y="0px"
	 viewBox="0 0 72 75" style="enable-background:new 0 0 72 75;" xml:space="preserve">
<style type="text/css">
	.st0{fill:none;stroke:#BCBEC0;stroke-width:0.561;stroke-miterlimit:10;}
	.st1{fill:#BCBEC0;}
	.st2{font-family:'Gotham-Black';}
	.st3{font-size:12px;}
	.st4{letter-spacing:-1;}
	.st5{font-family:'Gotham-Bold';}
	.st6{font-size:7px;}
	.st7{opacity:0.1;}
	.st8{fill:none;stroke:#000000;stroke-width:3;stroke-miterlimit:10;}
</style>
<g>
	<path class="st0" d="M71.8,52.4h-3 M71.8,50.9h-3 M71.8,49.4h-3 M71.8,47.9h-3 M71.8,46.4h-3 M71.8,44.9h-3 M71.8,43.4h-3
		 M71.8,41.9h-3 M71.8,40.4h-3 M71.8,38.9h-3 M71.8,37.4h-3 M71.8,35.9h-3 M71.8,34.4h-3 M71.8,32.9h-3 M71.8,31.4h-3 M71.8,29.9h-3
		 M71.8,28.4h-3 M71.8,26.9h-3 M71.8,25.4h-3 M71.8,23.9h-3 M71.8,22.4h-3 M71.8,20.9h-3 M69.8,18.7l-1.4,2.6 M68.5,18L67,20.7
		 M67.1,17.3l-1.4,2.6 M65.8,16.6l-1.4,2.6 M64.5,15.9l-1.4,2.6 M63.2,15.1l-1.4,2.6 M61.9,14.4l-1.4,2.6 M60.6,13.7l-1.4,2.6
		 M59.2,13l-1.4,2.6 M57.9,12.3l-1.4,2.6 M56.6,11.5l-1.4,2.6 M55.3,10.8l-1.4,2.6 M54,10.1l-1.4,2.6 M52.7,9.4L51.2,12 M51.3,8.7
		l-1.4,2.6 M50,7.9l-1.4,2.6 M48.7,7.2l-1.4,2.6 M47.4,6.5l-1.4,2.6 M46.1,5.8l-1.4,2.6 M44.7,5.1l-1.4,2.6 M43.4,4.3L42,7
		 M42.1,3.6l-1.4,2.6 M40.8,2.9l-1.4,2.6 M39.5,2.2L38,4.8 M38.2,1.5l-1.4,2.6 M35.4,2.1l1.4,2.6 M34.1,2.8l1.4,2.6 M32.8,3.5
		l1.4,2.6 M31.5,4.3l1.4,2.6 M30.1,5l1.4,2.6 M28.8,5.7l1.4,2.6 M27.5,6.4l1.4,2.6 M26.2,7.2l1.4,2.6 M24.9,7.9l1.4,2.6 M23.5,8.6
		l1.4,2.6 M22.2,9.3l1.4,2.6 M20.9,10l1.4,2.6 M19.6,10.8l1.4,2.6 M18.3,11.5l1.4,2.6 M17,12.2l1.4,2.6 M15.6,12.9l1.4,2.6
		 M14.3,13.6l1.4,2.6 M13,14.4l1.4,2.6 M11.7,15.1l1.4,2.6 M10.4,15.8l1.4,2.6 M9.1,16.5l1.4,2.6 M7.7,17.2l1.4,2.6 M6.4,18l1.4,2.6
		 M5.1,18.7l1.4,2.6 M3.8,19.4L5.2,22 M3,22.2h3 M3,23.7h3 M3,25.2h3 M3,26.7h3 M3,28.2h3 M3,29.7h3 M3,31.2h3 M3,32.7h3 M3,34.2h3
		 M3,35.7h3 M3,37.2h3 M3,38.7h3 M3,40.2h3 M3,41.7h3 M3,43.2h3 M3,44.7h3 M3,46.2h3 M3,47.7h3 M3,49.3h3 M3,50.8h3 M3,52.3h3
		 M4.7,54.5l1.4-2.6 M6,55.2l1.4-2.6 M7.4,56l1.4-2.6 M8.7,56.7l1.4-2.6 M10,57.4l1.4-2.6 M11.3,58.1l1.4-2.6 M12.6,58.8l1.4-2.6
		 M14,59.6l1.4-2.6 M15.3,60.3l1.4-2.6 M16.6,61l1.4-2.6 M17.9,61.7l1.4-2.6 M19.2,62.4l1.4-2.6 M20.5,63.2l1.4-2.6 M21.9,63.9
		l1.4-2.6 M23.2,64.6l1.4-2.6 M24.5,65.3l1.4-2.6 M25.8,66l1.4-2.6 M27.1,66.8l1.4-2.6 M28.4,67.5l1.4-2.6 M29.8,68.2l1.4-2.6
		 M31.1,68.9l1.4-2.6 M32.4,69.6l1.4-2.6 M33.7,70.4l1.4-2.6 M35,71.1l1.4-2.6 M36.4,71.8l1.4-2.6 M39.1,71.4l-1.4-2.6 M40.4,70.7
		L39,68.1 M41.7,70l-1.4-2.6 M43.1,69.3l-1.4-2.6 M44.4,68.5l-1.4-2.6 M45.7,67.8l-1.4-2.6 M47,67.1l-1.4-2.6 M48.3,66.4l-1.4-2.6
		 M49.6,65.7L48.2,63 M51,64.9l-1.4-2.6 M52.3,64.2l-1.4-2.6 M53.6,63.5l-1.4-2.6 M54.9,62.8l-1.4-2.6 M56.2,62.1l-1.4-2.6
		 M57.6,61.3l-1.4-2.6 M58.9,60.6L57.4,58 M60.2,59.9l-1.4-2.6 M61.5,59.2l-1.4-2.6 M62.8,58.5l-1.4-2.6 M64.1,57.7l-1.4-2.6
		 M65.5,57L64,54.4 M66.8,56.3l-1.4-2.6 M68.1,55.6l-1.4-2.6 M69.4,54.8L68,52.2 M70.7,54.1l-1.4-2.6"/>
</g>
<text transform="matrix(1 0 0 1 16.7988 31.6359)"><tspan x="0" y="0" class="st1 st2 st3 st4">T</tspan><tspan x="6.8" y="0" class="st1 st2 st3">op 25</tspan></text>
<text transform="matrix(1 0 0 1 20.6631 43.2355)"><tspan x="0" y="0" class="st1 st5 st6">L</tspan><tspan x="4.3" y="0" class="st1 st5 st6">ender in</tspan></text>
<text transform="matrix(1 0 0 1 18.395 51.6359)"><tspan x="0" y="0" class="st1 st5 st6">the Mar</tspan><tspan x="26.8" y="0" class="st1 st5 st6">k</tspan><tspan x="30.8" y="0" class="st1 st5 st6">et</tspan></text>
<g>
	<g class="st7">
		<g>
			<polygon class="st8" points="65.8,50.2 37.4,65.7 9,50.2 9,23.2 37.4,7.6 65.8,23.2 			"/>
		</g>
	</g>
</g>
</svg>
